<?xml version="1.0" encoding="UTF-8" standalone="no"?>
<!DOCTYPE svg PUBLIC "-//W3C//DTD SVG 1.1//EN"
"http://www.w3.org/Graphics/SVG/1.1/DTD/svg11.dtd">
<svg viewBox="0 0 909 1286" version="1.1" xmlns="http://www.w3.org/2000/svg" xmlns:xlink="http://www.w3.org/1999/xlink">
<defs>
<clipPath id="c0_12"><path d="M421.5 1210.1v-33.9H475v33.9Z"/></clipPath>
<clipPath id="c1_12"><path d="M92.3 378.2V109.3H731.2V378.2Z"/></clipPath>
<style type="text/css"><![CDATA[
.g0_12{
fill: #4472C4;
}
.g1_12{
fill: #000;
}
]]></style>
</defs>
<path fill-rule="evenodd" d="M49.7 88.9H836.2v-.7H49.7v.7Z" class="g0_12"/>
<path fill-rule="evenodd" d="M49.7 1161.4H836.2v-1.1H49.7v1.1Z" class="g0_12"/>
<image clip-path="url(#c0_12)" preserveAspectRatio="none" x="422" y="1176" width="53" height="34" xlink:href="img/1.png"/>
<path fill-rule="evenodd" d="M105.5 452.7h.7v-1.8h-.7v1.8Z" class="g1_12"/>
<path fill-rule="evenodd" d="M105.5 451.6h.7v-.7h-.7v.7Z" class="g1_12"/>
<path fill-rule="evenodd" d="M106.2 451.6H474v-.7H106.2v.7Z" class="g1_12"/>
<path fill-rule="evenodd" d="M474 452.7h.8v-1.1H474v1.1Z" class="g1_12"/>
<path fill-rule="evenodd" d="M474 451.6h.8v-.7H474v.7Z" class="g1_12"/>
<path fill-rule="evenodd" d="M474.8 451.6H842.2v-.7H474.8v.7Z" class="g1_12"/>
<path fill-rule="evenodd" d="M842.2 452.7h.8v-1.8h-.8v1.8Z" class="g1_12"/>
<path fill-rule="evenodd" d="M842.2 451.6h.8v-.7h-.8v.7Z" class="g1_12"/>
<path fill-rule="evenodd" d="M105.5 478.2h.7V452.7h-.7v25.5Z" class="g1_12"/>
<path fill-rule="evenodd" d="M474 478.2h.8V452.7H474v25.5Z" class="g1_12"/>
<path fill-rule="evenodd" d="M842.2 478.2h.8V452.7h-.8v25.5Z" class="g1_12"/>
<path fill-rule="evenodd" d="M105.5 480h.7v-1.8h-.7V480Z" class="g1_12"/>
<path fill-rule="evenodd" d="M106.2 478.9H474v-.7H106.2v.7Z" class="g1_12"/>
<path fill-rule="evenodd" d="M474 480h.8v-1.8H474V480Z" class="g1_12"/>
<path fill-rule="evenodd" d="M474.8 478.9H842.2v-.7H474.8v.7Z" class="g1_12"/>
<path fill-rule="evenodd" d="M842.2 480h.8v-1.8h-.8V480Z" class="g1_12"/>
<path fill-rule="evenodd" d="M105.5 530.8h.7V480h-.7v50.8Z" class="g1_12"/>
<path fill-rule="evenodd" d="M474 530.8h.8V480H474v50.8Z" class="g1_12"/>
<path fill-rule="evenodd" d="M842.2 530.8h.8V480h-.8v50.8Z" class="g1_12"/>
<path fill-rule="evenodd" d="M105.5 532.7h.7v-1.9h-.7v1.9Z" class="g1_12"/>
<path fill-rule="evenodd" d="M106.2 531.6H474v-.8H106.2v.8Z" class="g1_12"/>
<path fill-rule="evenodd" d="M474 532.7h.8v-1.9H474v1.9Z" class="g1_12"/>
<path fill-rule="evenodd" d="M474.8 531.6H842.2v-.8H474.8v.8Z" class="g1_12"/>
<path fill-rule="evenodd" d="M842.2 532.7h.8v-1.9h-.8v1.9Z" class="g1_12"/>
<path fill-rule="evenodd" d="M105.5 583.3h.7V532.7h-.7v50.6Z" class="g1_12"/>
<path fill-rule="evenodd" d="M474 583.3h.8V532.7H474v50.6Z" class="g1_12"/>
<path fill-rule="evenodd" d="M842.2 583.3h.8V532.7h-.8v50.6Z" class="g1_12"/>
<path fill-rule="evenodd" d="M105.5 585.1h.7v-1.8h-.7v1.8Z" class="g1_12"/>
<path fill-rule="evenodd" d="M106.2 584H474v-.7H106.2v.7Z" class="g1_12"/>
<path fill-rule="evenodd" d="M474 585.1h.8v-1.8H474v1.8Z" class="g1_12"/>
<path fill-rule="evenodd" d="M474.8 584H842.2v-.7H474.8v.7Z" class="g1_12"/>
<path fill-rule="evenodd" d="M842.2 585.1h.8v-1.8h-.8v1.8Z" class="g1_12"/>
<path fill-rule="evenodd" d="M105.5 635h.7V585.1h-.7V635Z" class="g1_12"/>
<path fill-rule="evenodd" d="M474 635h.8V585.1H474V635Z" class="g1_12"/>
<path fill-rule="evenodd" d="M842.2 635h.8V585.1h-.8V635Z" class="g1_12"/>
<path fill-rule="evenodd" d="M105.5 636.8h.7V635h-.7v1.8Z" class="g1_12"/>
<path fill-rule="evenodd" d="M106.2 635.7H474V635H106.2v.7Z" class="g1_12"/>
<path fill-rule="evenodd" d="M474 636.8h.8V635H474v1.8Z" class="g1_12"/>
<path fill-rule="evenodd" d="M474.8 635.7H842.2V635H474.8v.7Z" class="g1_12"/>
<path fill-rule="evenodd" d="M842.2 636.8h.8V635h-.8v1.8Z" class="g1_12"/>
<path fill-rule="evenodd" d="M105.5 662.3h.7V636.8h-.7v25.5Z" class="g1_12"/>
<path fill-rule="evenodd" d="M474 662.3h.8V636.8H474v25.5Z" class="g1_12"/>
<path fill-rule="evenodd" d="M842.2 662.3h.8V636.8h-.8v25.5Z" class="g1_12"/>
<path fill-rule="evenodd" d="M105.5 664.1h.7v-1.8h-.7v1.8Z" class="g1_12"/>
<path fill-rule="evenodd" d="M106.2 663H474v-.7H106.2v.7Z" class="g1_12"/>
<path fill-rule="evenodd" d="M474 664.1h.8v-1.8H474v1.8Z" class="g1_12"/>
<path fill-rule="evenodd" d="M474.8 663H842.2v-.7H474.8v.7Z" class="g1_12"/>
<path fill-rule="evenodd" d="M842.2 664.1h.8v-1.8h-.8v1.8Z" class="g1_12"/>
<path fill-rule="evenodd" d="M105.5 714.7h.7V664.1h-.7v50.6Z" class="g1_12"/>
<path fill-rule="evenodd" d="M474 714.7h.8V664.1H474v50.6Z" class="g1_12"/>
<path fill-rule="evenodd" d="M842.2 714.7h.8V664.1h-.8v50.6Z" class="g1_12"/>
<path fill-rule="evenodd" d="M105.5 716.6h.7v-1.9h-.7v1.9Z" class="g1_12"/>
<path fill-rule="evenodd" d="M106.2 715.5H474v-.8H106.2v.8Z" class="g1_12"/>
<path fill-rule="evenodd" d="M474 716.6h.8v-1.9H474v1.9Z" class="g1_12"/>
<path fill-rule="evenodd" d="M474.8 715.5H842.2v-.8H474.8v.8Z" class="g1_12"/>
<path fill-rule="evenodd" d="M842.2 716.6h.8v-1.9h-.8v1.9Z" class="g1_12"/>
<path fill-rule="evenodd" d="M105.5 763.9h.7V716.6h-.7v47.3Z" class="g1_12"/>
<path fill-rule="evenodd" d="M105.5 764.6h.7v-.7h-.7v.7Z" class="g1_12"/>
<path fill-rule="evenodd" d="M105.5 764.6h.7v-.7h-.7v.7Z" class="g1_12"/>
<path fill-rule="evenodd" d="M106.2 764.6H474v-.7H106.2v.7Z" class="g1_12"/>
<path fill-rule="evenodd" d="M474 763.9h.8V716.6H474v47.3Z" class="g1_12"/>
<path fill-rule="evenodd" d="M474 764.6h.8v-.7H474v.7Z" class="g1_12"/>
<path fill-rule="evenodd" d="M474.8 764.6H842.2v-.7H474.8v.7Z" class="g1_12"/>
<path fill-rule="evenodd" d="M842.2 763.9h.8V716.6h-.8v47.3Z" class="g1_12"/>
<path fill-rule="evenodd" d="M842.2 764.6h.8v-.7h-.8v.7Z" class="g1_12"/>
<path fill-rule="evenodd" d="M842.2 764.6h.8v-.7h-.8v.7Z" class="g1_12"/>
<path fill-rule="evenodd" d="M116.6 838.3h.8v-4.9h-.8v4.9Z" class="g1_12"/>
<path fill-rule="evenodd" d="M116.6 834.1h.8v-.7h-.8v.7Z" class="g1_12"/>
<path fill-rule="evenodd" d="M117.4 834.1H293v-.7H117.4v.7Z" class="g1_12"/>
<path fill-rule="evenodd" d="M293 834.1h.8v-.7H293v.7Z" class="g1_12"/>
<path fill-rule="evenodd" d="M293.8 834.1H853v-.7H293.8v.7Z" class="g1_12"/>
<path fill-rule="evenodd" d="M853 838.3h.8v-4.9H853v4.9Z" class="g1_12"/>
<path fill-rule="evenodd" d="M853 834.1h.8v-.7H853v.7Z" class="g1_12"/>
<path fill-rule="evenodd" d="M119.4 837.2h.7v-.7h-.7v.7Z" class="g1_12"/>
<path fill-rule="evenodd" d="M119.4 837.2h.7v-.7h-.7v.7Z" class="g1_12"/>
<path fill-rule="evenodd" d="M120.1 837.2H291v-.7H120.1v.7Z" class="g1_12"/>
<path fill-rule="evenodd" d="M291 837.2h.8v-.7H291v.7Z" class="g1_12"/>
<path fill-rule="evenodd" d="M291 837.2h.8v-.7H291v.7Z" class="g1_12"/>
<path fill-rule="evenodd" d="M119.4 863.1h.7v-.8h-.7v.8Z" class="g1_12"/>
<path fill-rule="evenodd" d="M119.4 863.1h.7v-.8h-.7v.8Z" class="g1_12"/>
<path fill-rule="evenodd" d="M120.1 863.1H291v-.8H120.1v.8Z" class="g1_12"/>
<path fill-rule="evenodd" d="M291 863.1h.8v-.8H291v.8Z" class="g1_12"/>
<path fill-rule="evenodd" d="M291 863.1h.8v-.8H291v.8Z" class="g1_12"/>
<path fill-rule="evenodd" d="M119.4 862.3h.7V837.2h-.7v25.1Z" class="g1_12"/>
<path fill-rule="evenodd" d="M291 862.3h.8V837.2H291v25.1Z" class="g1_12"/>
<path fill-rule="evenodd" d="M116.6 864.3h.8v-26h-.8v26Z" class="g1_12"/>
<path fill-rule="evenodd" d="M294.1 837.2h.8v-.7h-.8v.7Z" class="g1_12"/>
<path fill-rule="evenodd" d="M294.1 837.2h.8v-.7h-.8v.7Z" class="g1_12"/>
<path fill-rule="evenodd" d="M294.9 837.2H850.3v-.7H294.9v.7Z" class="g1_12"/>
<path fill-rule="evenodd" d="M850.3 837.2h.7v-.7h-.7v.7Z" class="g1_12"/>
<path fill-rule="evenodd" d="M850.3 837.2h.7v-.7h-.7v.7Z" class="g1_12"/>
<path fill-rule="evenodd" d="M294.1 863.1h.8v-.8h-.8v.8Z" class="g1_12"/>
<path fill-rule="evenodd" d="M294.1 863.1h.8v-.8h-.8v.8Z" class="g1_12"/>
<path fill-rule="evenodd" d="M294.9 863.1H850.3v-.8H294.9v.8Z" class="g1_12"/>
<path fill-rule="evenodd" d="M850.3 863.1h.7v-.8h-.7v.8Z" class="g1_12"/>
<path fill-rule="evenodd" d="M850.3 863.1h.7v-.8h-.7v.8Z" class="g1_12"/>
<path fill-rule="evenodd" d="M294.1 862.3h.8V837.2h-.8v25.1Z" class="g1_12"/>
<path fill-rule="evenodd" d="M850.3 862.3h.7V837.2h-.7v25.1Z" class="g1_12"/>
<path fill-rule="evenodd" d="M853 864.3h.8v-26H853v26Z" class="g1_12"/>
<path fill-rule="evenodd" d="M116.6 867.5h.8v-3.2h-.8v3.2Z" class="g1_12"/>
<path fill-rule="evenodd" d="M853 867.5h.8v-3.2H853v3.2Z" class="g1_12"/>
<path fill-rule="evenodd" d="M119.4 866.4h.7v-.8h-.7v.8Z" class="g1_12"/>
<path fill-rule="evenodd" d="M119.4 866.4h.7v-.8h-.7v.8Z" class="g1_12"/>
<path fill-rule="evenodd" d="M120.1 866.4H291v-.8H120.1v.8Z" class="g1_12"/>
<path fill-rule="evenodd" d="M291 866.4h.8v-.8H291v.8Z" class="g1_12"/>
<path fill-rule="evenodd" d="M291 866.4h.8v-.8H291v.8Z" class="g1_12"/>
<path fill-rule="evenodd" d="M119.4 892.1h.7v-.8h-.7v.8Z" class="g1_12"/>
<path fill-rule="evenodd" d="M119.4 892.1h.7v-.8h-.7v.8Z" class="g1_12"/>
<path fill-rule="evenodd" d="M120.1 892.1H291v-.8H120.1v.8Z" class="g1_12"/>
<path fill-rule="evenodd" d="M291 892.1h.8v-.8H291v.8Z" class="g1_12"/>
<path fill-rule="evenodd" d="M291 892.1h.8v-.8H291v.8Z" class="g1_12"/>
<path fill-rule="evenodd" d="M119.4 891.3h.7V866.4h-.7v24.9Z" class="g1_12"/>
<path fill-rule="evenodd" d="M291 891.3h.8V866.4H291v24.9Z" class="g1_12"/>
<path fill-rule="evenodd" d="M116.6 893.4h.8V867.5h-.8v25.9Z" class="g1_12"/>
<path fill-rule="evenodd" d="M294.1 866.4h.8v-.8h-.8v.8Z" class="g1_12"/>
<path fill-rule="evenodd" d="M294.1 866.4h.8v-.8h-.8v.8Z" class="g1_12"/>
<path fill-rule="evenodd" d="M294.9 866.4H850.3v-.8H294.9v.8Z" class="g1_12"/>
<path fill-rule="evenodd" d="M850.3 866.4h.7v-.8h-.7v.8Z" class="g1_12"/>
<path fill-rule="evenodd" d="M850.3 866.4h.7v-.8h-.7v.8Z" class="g1_12"/>
<path fill-rule="evenodd" d="M294.1 892.1h.8v-.8h-.8v.8Z" class="g1_12"/>
<path fill-rule="evenodd" d="M294.1 892.1h.8v-.8h-.8v.8Z" class="g1_12"/>
<path fill-rule="evenodd" d="M294.9 892.1H850.3v-.8H294.9v.8Z" class="g1_12"/>
<path fill-rule="evenodd" d="M850.3 892.1h.7v-.8h-.7v.8Z" class="g1_12"/>
<path fill-rule="evenodd" d="M850.3 892.1h.7v-.8h-.7v.8Z" class="g1_12"/>
<path fill-rule="evenodd" d="M294.1 891.3h.8V866.4h-.8v24.9Z" class="g1_12"/>
<path fill-rule="evenodd" d="M850.3 891.3h.7V866.4h-.7v24.9Z" class="g1_12"/>
<path fill-rule="evenodd" d="M853 893.4h.8V867.5H853v25.9Z" class="g1_12"/>
<path fill-rule="evenodd" d="M116.6 896.5h.8v-3.1h-.8v3.1Z" class="g1_12"/>
<path fill-rule="evenodd" d="M853 896.5h.8v-3.1H853v3.1Z" class="g1_12"/>
<path fill-rule="evenodd" d="M119.4 895.4h.7v-.8h-.7v.8Z" class="g1_12"/>
<path fill-rule="evenodd" d="M119.4 895.4h.7v-.8h-.7v.8Z" class="g1_12"/>
<path fill-rule="evenodd" d="M120.1 895.4H291v-.8H120.1v.8Z" class="g1_12"/>
<path fill-rule="evenodd" d="M291 895.4h.8v-.8H291v.8Z" class="g1_12"/>
<path fill-rule="evenodd" d="M291 895.4h.8v-.8H291v.8Z" class="g1_12"/>
<path fill-rule="evenodd" d="M119.4 920.9h.7v-.8h-.7v.8Z" class="g1_12"/>
<path fill-rule="evenodd" d="M119.4 920.9h.7v-.8h-.7v.8Z" class="g1_12"/>
<path fill-rule="evenodd" d="M120.1 920.9H291v-.8H120.1v.8Z" class="g1_12"/>
<path fill-rule="evenodd" d="M291 920.9h.8v-.8H291v.8Z" class="g1_12"/>
<path fill-rule="evenodd" d="M291 920.9h.8v-.8H291v.8Z" class="g1_12"/>
<path fill-rule="evenodd" d="M119.4 920.1h.7V895.4h-.7v24.7Z" class="g1_12"/>
<path fill-rule="evenodd" d="M291 920.1h.8V895.4H291v24.7Z" class="g1_12"/>
<path fill-rule="evenodd" d="M116.6 922.1h.8V896.5h-.8v25.6Z" class="g1_12"/>
<path fill-rule="evenodd" d="M294.1 895.4h.8v-.8h-.8v.8Z" class="g1_12"/>
<path fill-rule="evenodd" d="M294.1 895.4h.8v-.8h-.8v.8Z" class="g1_12"/>
<path fill-rule="evenodd" d="M294.9 895.4H850.3v-.8H294.9v.8Z" class="g1_12"/>
<path fill-rule="evenodd" d="M850.3 895.4h.7v-.8h-.7v.8Z" class="g1_12"/>
<path fill-rule="evenodd" d="M850.3 895.4h.7v-.8h-.7v.8Z" class="g1_12"/>
<path fill-rule="evenodd" d="M294.1 920.9h.8v-.8h-.8v.8Z" class="g1_12"/>
<path fill-rule="evenodd" d="M294.1 920.9h.8v-.8h-.8v.8Z" class="g1_12"/>
<path fill-rule="evenodd" d="M294.9 920.9H850.3v-.8H294.9v.8Z" class="g1_12"/>
<path fill-rule="evenodd" d="M850.3 920.9h.7v-.8h-.7v.8Z" class="g1_12"/>
<path fill-rule="evenodd" d="M850.3 920.9h.7v-.8h-.7v.8Z" class="g1_12"/>
<path fill-rule="evenodd" d="M294.1 920.1h.8V895.4h-.8v24.7Z" class="g1_12"/>
<path fill-rule="evenodd" d="M850.3 920.1h.7V895.4h-.7v24.7Z" class="g1_12"/>
<path fill-rule="evenodd" d="M853 922.1h.8V896.5H853v25.6Z" class="g1_12"/>
<path fill-rule="evenodd" d="M116.6 925.3h.8v-3.2h-.8v3.2Z" class="g1_12"/>
<path fill-rule="evenodd" d="M853 925.3h.8v-3.2H853v3.2Z" class="g1_12"/>
<path fill-rule="evenodd" d="M119.4 924.2h.7v-.8h-.7v.8Z" class="g1_12"/>
<path fill-rule="evenodd" d="M119.4 924.2h.7v-.8h-.7v.8Z" class="g1_12"/>
<path fill-rule="evenodd" d="M120.1 924.2H291v-.8H120.1v.8Z" class="g1_12"/>
<path fill-rule="evenodd" d="M291 924.2h.8v-.8H291v.8Z" class="g1_12"/>
<path fill-rule="evenodd" d="M291 924.2h.8v-.8H291v.8Z" class="g1_12"/>
<path fill-rule="evenodd" d="M119.4 950.2h.7v-.7h-.7v.7Z" class="g1_12"/>
<path fill-rule="evenodd" d="M119.4 950.2h.7v-.7h-.7v.7Z" class="g1_12"/>
<path fill-rule="evenodd" d="M120.1 950.2H291v-.7H120.1v.7Z" class="g1_12"/>
<path fill-rule="evenodd" d="M291 950.2h.8v-.7H291v.7Z" class="g1_12"/>
<path fill-rule="evenodd" d="M291 950.2h.8v-.7H291v.7Z" class="g1_12"/>
<path fill-rule="evenodd" d="M119.4 949.5h.7V924.2h-.7v25.3Z" class="g1_12"/>
<path fill-rule="evenodd" d="M291 949.5h.8V924.2H291v25.3Z" class="g1_12"/>
<path fill-rule="evenodd" d="M116.6 951.5h.8V925.3h-.8v26.2Z" class="g1_12"/>
<path fill-rule="evenodd" d="M294.1 924.2h.8v-.8h-.8v.8Z" class="g1_12"/>
<path fill-rule="evenodd" d="M294.1 924.2h.8v-.8h-.8v.8Z" class="g1_12"/>
<path fill-rule="evenodd" d="M294.9 924.2H850.3v-.8H294.9v.8Z" class="g1_12"/>
<path fill-rule="evenodd" d="M850.3 924.2h.7v-.8h-.7v.8Z" class="g1_12"/>
<path fill-rule="evenodd" d="M850.3 924.2h.7v-.8h-.7v.8Z" class="g1_12"/>
<path fill-rule="evenodd" d="M294.1 950.2h.8v-.7h-.8v.7Z" class="g1_12"/>
<path fill-rule="evenodd" d="M294.1 950.2h.8v-.7h-.8v.7Z" class="g1_12"/>
<path fill-rule="evenodd" d="M294.9 950.2H850.3v-.7H294.9v.7Z" class="g1_12"/>
<path fill-rule="evenodd" d="M850.3 950.2h.7v-.7h-.7v.7Z" class="g1_12"/>
<path fill-rule="evenodd" d="M850.3 950.2h.7v-.7h-.7v.7Z" class="g1_12"/>
<path fill-rule="evenodd" d="M294.1 949.5h.8V924.2h-.8v25.3Z" class="g1_12"/>
<path fill-rule="evenodd" d="M850.3 949.5h.7V924.2h-.7v25.3Z" class="g1_12"/>
<path fill-rule="evenodd" d="M853 951.5h.8V925.3H853v26.2Z" class="g1_12"/>
<path fill-rule="evenodd" d="M116.6 954.6h.8v-3.1h-.8v3.1Z" class="g1_12"/>
<path fill-rule="evenodd" d="M853 954.6h.8v-3.1H853v3.1Z" class="g1_12"/>
<path fill-rule="evenodd" d="M119.4 953.5h.7v-.7h-.7v.7Z" class="g1_12"/>
<path fill-rule="evenodd" d="M119.4 953.5h.7v-.7h-.7v.7Z" class="g1_12"/>
<path fill-rule="evenodd" d="M120.1 953.5H291v-.7H120.1v.7Z" class="g1_12"/>
<path fill-rule="evenodd" d="M291 953.5h.8v-.7H291v.7Z" class="g1_12"/>
<path fill-rule="evenodd" d="M291 953.5h.8v-.7H291v.7Z" class="g1_12"/>
<path fill-rule="evenodd" d="M119.4 979.2h.7v-.8h-.7v.8Z" class="g1_12"/>
<path fill-rule="evenodd" d="M119.4 979.2h.7v-.8h-.7v.8Z" class="g1_12"/>
<path fill-rule="evenodd" d="M120.1 979.2H291v-.8H120.1v.8Z" class="g1_12"/>
<path fill-rule="evenodd" d="M291 979.2h.8v-.8H291v.8Z" class="g1_12"/>
<path fill-rule="evenodd" d="M291 979.2h.8v-.8H291v.8Z" class="g1_12"/>
<path fill-rule="evenodd" d="M119.4 978.4h.7V953.5h-.7v24.9Z" class="g1_12"/>
<path fill-rule="evenodd" d="M291 978.4h.8V953.5H291v24.9Z" class="g1_12"/>
<path fill-rule="evenodd" d="M116.6 980.4h.8V954.6h-.8v25.8Z" class="g1_12"/>
<path fill-rule="evenodd" d="M294.1 953.5h.8v-.7h-.8v.7Z" class="g1_12"/>
<path fill-rule="evenodd" d="M294.1 953.5h.8v-.7h-.8v.7Z" class="g1_12"/>
<path fill-rule="evenodd" d="M294.9 953.5H850.3v-.7H294.9v.7Z" class="g1_12"/>
<path fill-rule="evenodd" d="M850.3 953.5h.7v-.7h-.7v.7Z" class="g1_12"/>
<path fill-rule="evenodd" d="M850.3 953.5h.7v-.7h-.7v.7Z" class="g1_12"/>
<path fill-rule="evenodd" d="M294.1 979.2h.8v-.8h-.8v.8Z" class="g1_12"/>
<path fill-rule="evenodd" d="M294.1 979.2h.8v-.8h-.8v.8Z" class="g1_12"/>
<path fill-rule="evenodd" d="M294.9 979.2H850.3v-.8H294.9v.8Z" class="g1_12"/>
<path fill-rule="evenodd" d="M850.3 979.2h.7v-.8h-.7v.8Z" class="g1_12"/>
<path fill-rule="evenodd" d="M850.3 979.2h.7v-.8h-.7v.8Z" class="g1_12"/>
<path fill-rule="evenodd" d="M294.1 978.4h.8V953.5h-.8v24.9Z" class="g1_12"/>
<path fill-rule="evenodd" d="M850.3 978.4h.7V953.5h-.7v24.9Z" class="g1_12"/>
<path fill-rule="evenodd" d="M853 980.4h.8V954.6H853v25.8Z" class="g1_12"/>
<path fill-rule="evenodd" d="M116.6 983.6h.8v-3.2h-.8v3.2Z" class="g1_12"/>
<path fill-rule="evenodd" d="M853 983.6h.8v-3.2H853v3.2Z" class="g1_12"/>
<path fill-rule="evenodd" d="M119.4 982.5h.7v-.8h-.7v.8Z" class="g1_12"/>
<path fill-rule="evenodd" d="M119.4 982.5h.7v-.8h-.7v.8Z" class="g1_12"/>
<path fill-rule="evenodd" d="M120.1 982.5H291v-.8H120.1v.8Z" class="g1_12"/>
<path fill-rule="evenodd" d="M291 982.5h.8v-.8H291v.8Z" class="g1_12"/>
<path fill-rule="evenodd" d="M291 982.5h.8v-.8H291v.8Z" class="g1_12"/>
<path fill-rule="evenodd" d="M119.4 1007.9h.7v-.7h-.7v.7Z" class="g1_12"/>
<path fill-rule="evenodd" d="M119.4 1007.9h.7v-.7h-.7v.7Z" class="g1_12"/>
<path fill-rule="evenodd" d="M120.1 1007.9H291v-.7H120.1v.7Z" class="g1_12"/>
<path fill-rule="evenodd" d="M291 1007.9h.8v-.7H291v.7Z" class="g1_12"/>
<path fill-rule="evenodd" d="M291 1007.9h.8v-.7H291v.7Z" class="g1_12"/>
<path fill-rule="evenodd" d="M119.4 1007.2h.7V982.5h-.7v24.7Z" class="g1_12"/>
<path fill-rule="evenodd" d="M291 1007.2h.8V982.5H291v24.7Z" class="g1_12"/>
<path fill-rule="evenodd" d="M116.6 1009.2h.8V983.6h-.8v25.6Z" class="g1_12"/>
<path fill-rule="evenodd" d="M294.1 982.5h.8v-.8h-.8v.8Z" class="g1_12"/>
<path fill-rule="evenodd" d="M294.1 982.5h.8v-.8h-.8v.8Z" class="g1_12"/>
<path fill-rule="evenodd" d="M294.9 982.5H850.3v-.8H294.9v.8Z" class="g1_12"/>
<path fill-rule="evenodd" d="M850.3 982.5h.7v-.8h-.7v.8Z" class="g1_12"/>
<path fill-rule="evenodd" d="M850.3 982.5h.7v-.8h-.7v.8Z" class="g1_12"/>
<path fill-rule="evenodd" d="M294.1 1007.9h.8v-.7h-.8v.7Z" class="g1_12"/>
<path fill-rule="evenodd" d="M294.1 1007.9h.8v-.7h-.8v.7Z" class="g1_12"/>
<path fill-rule="evenodd" d="M294.9 1007.9H850.3v-.7H294.9v.7Z" class="g1_12"/>
<path fill-rule="evenodd" d="M850.3 1007.9h.7v-.7h-.7v.7Z" class="g1_12"/>
<path fill-rule="evenodd" d="M850.3 1007.9h.7v-.7h-.7v.7Z" class="g1_12"/>
<path fill-rule="evenodd" d="M294.1 1007.2h.8V982.5h-.8v24.7Z" class="g1_12"/>
<path fill-rule="evenodd" d="M850.3 1007.2h.7V982.5h-.7v24.7Z" class="g1_12"/>
<path fill-rule="evenodd" d="M853 1009.2h.8V983.6H853v25.6Z" class="g1_12"/>
<path fill-rule="evenodd" d="M116.6 1012.3h.8v-3.1h-.8v3.1Z" class="g1_12"/>
<path fill-rule="evenodd" d="M853 1012.3h.8v-3.1H853v3.1Z" class="g1_12"/>
<path fill-rule="evenodd" d="M119.4 1011.2h.7v-.7h-.7v.7Z" class="g1_12"/>
<path fill-rule="evenodd" d="M119.4 1011.2h.7v-.7h-.7v.7Z" class="g1_12"/>
<path fill-rule="evenodd" d="M120.1 1011.2H291v-.7H120.1v.7Z" class="g1_12"/>
<path fill-rule="evenodd" d="M291 1011.2h.8v-.7H291v.7Z" class="g1_12"/>
<path fill-rule="evenodd" d="M291 1011.2h.8v-.7H291v.7Z" class="g1_12"/>
<path fill-rule="evenodd" d="M119.4 1037.3h.7v-.8h-.7v.8Z" class="g1_12"/>
<path fill-rule="evenodd" d="M119.4 1037.3h.7v-.8h-.7v.8Z" class="g1_12"/>
<path fill-rule="evenodd" d="M120.1 1037.3H291v-.8H120.1v.8Z" class="g1_12"/>
<path fill-rule="evenodd" d="M291 1037.3h.8v-.8H291v.8Z" class="g1_12"/>
<path fill-rule="evenodd" d="M291 1037.3h.8v-.8H291v.8Z" class="g1_12"/>
<path fill-rule="evenodd" d="M119.4 1036.5h.7v-25.3h-.7v25.3Z" class="g1_12"/>
<path fill-rule="evenodd" d="M291 1036.5h.8v-25.3H291v25.3Z" class="g1_12"/>
<path fill-rule="evenodd" d="M116.6 1038.6h.8v-26.3h-.8v26.3Z" class="g1_12"/>
<path fill-rule="evenodd" d="M294.1 1011.2h.8v-.7h-.8v.7Z" class="g1_12"/>
<path fill-rule="evenodd" d="M294.1 1011.2h.8v-.7h-.8v.7Z" class="g1_12"/>
<path fill-rule="evenodd" d="M294.9 1011.2H850.3v-.7H294.9v.7Z" class="g1_12"/>
<path fill-rule="evenodd" d="M850.3 1011.2h.7v-.7h-.7v.7Z" class="g1_12"/>
<path fill-rule="evenodd" d="M850.3 1011.2h.7v-.7h-.7v.7Z" class="g1_12"/>
<path fill-rule="evenodd" d="M294.1 1037.3h.8v-.8h-.8v.8Z" class="g1_12"/>
<path fill-rule="evenodd" d="M294.1 1037.3h.8v-.8h-.8v.8Z" class="g1_12"/>
<path fill-rule="evenodd" d="M294.9 1037.3H850.3v-.8H294.9v.8Z" class="g1_12"/>
<path fill-rule="evenodd" d="M850.3 1037.3h.7v-.8h-.7v.8Z" class="g1_12"/>
<path fill-rule="evenodd" d="M850.3 1037.3h.7v-.8h-.7v.8Z" class="g1_12"/>
<path fill-rule="evenodd" d="M294.1 1036.5h.8v-25.3h-.8v25.3Z" class="g1_12"/>
<path fill-rule="evenodd" d="M850.3 1036.5h.7v-25.3h-.7v25.3Z" class="g1_12"/>
<path fill-rule="evenodd" d="M853 1038.6h.8v-26.3H853v26.3Z" class="g1_12"/>
<path fill-rule="evenodd" d="M116.6 1041.7h.8v-3.1h-.8v3.1Z" class="g1_12"/>
<path fill-rule="evenodd" d="M853 1041.7h.8v-3.1H853v3.1Z" class="g1_12"/>
<path fill-rule="evenodd" d="M119.4 1040.6h.7v-.8h-.7v.8Z" class="g1_12"/>
<path fill-rule="evenodd" d="M119.4 1040.6h.7v-.8h-.7v.8Z" class="g1_12"/>
<path fill-rule="evenodd" d="M120.1 1040.6H291v-.8H120.1v.8Z" class="g1_12"/>
<path fill-rule="evenodd" d="M291 1040.6h.8v-.8H291v.8Z" class="g1_12"/>
<path fill-rule="evenodd" d="M291 1040.6h.8v-.8H291v.8Z" class="g1_12"/>
<path fill-rule="evenodd" d="M119.4 1066.2h.7v-.7h-.7v.7Z" class="g1_12"/>
<path fill-rule="evenodd" d="M119.4 1066.2h.7v-.7h-.7v.7Z" class="g1_12"/>
<path fill-rule="evenodd" d="M120.1 1066.2H291v-.7H120.1v.7Z" class="g1_12"/>
<path fill-rule="evenodd" d="M291 1066.2h.8v-.7H291v.7Z" class="g1_12"/>
<path fill-rule="evenodd" d="M291 1066.2h.8v-.7H291v.7Z" class="g1_12"/>
<path fill-rule="evenodd" d="M119.4 1065.5h.7v-24.9h-.7v24.9Z" class="g1_12"/>
<path fill-rule="evenodd" d="M291 1065.5h.8v-24.9H291v24.9Z" class="g1_12"/>
<path fill-rule="evenodd" d="M116.6 1067.5h.8v-25.8h-.8v25.8Z" class="g1_12"/>
<path fill-rule="evenodd" d="M294.1 1040.6h.8v-.8h-.8v.8Z" class="g1_12"/>
<path fill-rule="evenodd" d="M294.1 1040.6h.8v-.8h-.8v.8Z" class="g1_12"/>
<path fill-rule="evenodd" d="M294.9 1040.6H850.3v-.8H294.9v.8Z" class="g1_12"/>
<path fill-rule="evenodd" d="M850.3 1040.6h.7v-.8h-.7v.8Z" class="g1_12"/>
<path fill-rule="evenodd" d="M850.3 1040.6h.7v-.8h-.7v.8Z" class="g1_12"/>
<path fill-rule="evenodd" d="M294.1 1066.2h.8v-.7h-.8v.7Z" class="g1_12"/>
<path fill-rule="evenodd" d="M294.1 1066.2h.8v-.7h-.8v.7Z" class="g1_12"/>
<path fill-rule="evenodd" d="M294.9 1066.2H850.3v-.7H294.9v.7Z" class="g1_12"/>
<path fill-rule="evenodd" d="M850.3 1066.2h.7v-.7h-.7v.7Z" class="g1_12"/>
<path fill-rule="evenodd" d="M850.3 1066.2h.7v-.7h-.7v.7Z" class="g1_12"/>
<path fill-rule="evenodd" d="M294.1 1065.5h.8v-24.9h-.8v24.9Z" class="g1_12"/>
<path fill-rule="evenodd" d="M850.3 1065.5h.7v-24.9h-.7v24.9Z" class="g1_12"/>
<path fill-rule="evenodd" d="M853 1067.5h.8v-25.8H853v25.8Z" class="g1_12"/>
<path fill-rule="evenodd" d="M116.6 1070.6h.8v-3.1h-.8v3.1Z" class="g1_12"/>
<path fill-rule="evenodd" d="M853 1070.6h.8v-3.1H853v3.1Z" class="g1_12"/>
<path fill-rule="evenodd" d="M119.4 1069.5h.7v-.7h-.7v.7Z" class="g1_12"/>
<path fill-rule="evenodd" d="M119.4 1069.5h.7v-.7h-.7v.7Z" class="g1_12"/>
<path fill-rule="evenodd" d="M120.1 1069.5H291v-.7H120.1v.7Z" class="g1_12"/>
<path fill-rule="evenodd" d="M291 1069.5h.8v-.7H291v.7Z" class="g1_12"/>
<path fill-rule="evenodd" d="M291 1069.5h.8v-.7H291v.7Z" class="g1_12"/>
<path fill-rule="evenodd" d="M119.4 1095h.7v-.7h-.7v.7Z" class="g1_12"/>
<path fill-rule="evenodd" d="M119.4 1095h.7v-.7h-.7v.7Z" class="g1_12"/>
<path fill-rule="evenodd" d="M120.1 1095H291v-.7H120.1v.7Z" class="g1_12"/>
<path fill-rule="evenodd" d="M291 1095h.8v-.7H291v.7Z" class="g1_12"/>
<path fill-rule="evenodd" d="M291 1095h.8v-.7H291v.7Z" class="g1_12"/>
<path fill-rule="evenodd" d="M119.4 1094.3h.7v-24.8h-.7v24.8Z" class="g1_12"/>
<path fill-rule="evenodd" d="M291 1094.3h.8v-24.8H291v24.8Z" class="g1_12"/>
<path fill-rule="evenodd" d="M116.6 1096.3h.8v-25.7h-.8v25.7Z" class="g1_12"/>
<path fill-rule="evenodd" d="M294.1 1069.5h.8v-.7h-.8v.7Z" class="g1_12"/>
<path fill-rule="evenodd" d="M294.1 1069.5h.8v-.7h-.8v.7Z" class="g1_12"/>
<path fill-rule="evenodd" d="M294.9 1069.5H850.3v-.7H294.9v.7Z" class="g1_12"/>
<path fill-rule="evenodd" d="M850.3 1069.5h.7v-.7h-.7v.7Z" class="g1_12"/>
<path fill-rule="evenodd" d="M850.3 1069.5h.7v-.7h-.7v.7Z" class="g1_12"/>
<path fill-rule="evenodd" d="M294.1 1095h.8v-.7h-.8v.7Z" class="g1_12"/>
<path fill-rule="evenodd" d="M294.1 1095h.8v-.7h-.8v.7Z" class="g1_12"/>
<path fill-rule="evenodd" d="M294.9 1095H850.3v-.7H294.9v.7Z" class="g1_12"/>
<path fill-rule="evenodd" d="M850.3 1095h.7v-.7h-.7v.7Z" class="g1_12"/>
<path fill-rule="evenodd" d="M850.3 1095h.7v-.7h-.7v.7Z" class="g1_12"/>
<path fill-rule="evenodd" d="M294.1 1094.3h.8v-24.8h-.8v24.8Z" class="g1_12"/>
<path fill-rule="evenodd" d="M850.3 1094.3h.7v-24.8h-.7v24.8Z" class="g1_12"/>
<path fill-rule="evenodd" d="M853 1096.3h.8v-25.7H853v25.7Z" class="g1_12"/>
<path fill-rule="evenodd" d="M116.6 1099.4h.8v-3.1h-.8v3.1Z" class="g1_12"/>
<path fill-rule="evenodd" d="M853 1099.4h.8v-3.1H853v3.1Z" class="g1_12"/>
<path fill-rule="evenodd" d="M119.4 1098.3h.7v-.7h-.7v.7Z" class="g1_12"/>
<path fill-rule="evenodd" d="M119.4 1098.3h.7v-.7h-.7v.7Z" class="g1_12"/>
<path fill-rule="evenodd" d="M120.1 1098.3H291v-.7H120.1v.7Z" class="g1_12"/>
<path fill-rule="evenodd" d="M291 1098.3h.8v-.7H291v.7Z" class="g1_12"/>
<path fill-rule="evenodd" d="M291 1098.3h.8v-.7H291v.7Z" class="g1_12"/>
<path fill-rule="evenodd" d="M119.4 1124h.7v-.7h-.7v.7Z" class="g1_12"/>
<path fill-rule="evenodd" d="M119.4 1124h.7v-.7h-.7v.7Z" class="g1_12"/>
<path fill-rule="evenodd" d="M120.1 1124H291v-.7H120.1v.7Z" class="g1_12"/>
<path fill-rule="evenodd" d="M291 1124h.8v-.7H291v.7Z" class="g1_12"/>
<path fill-rule="evenodd" d="M291 1124h.8v-.7H291v.7Z" class="g1_12"/>
<path fill-rule="evenodd" d="M119.4 1123.3h.7v-25h-.7v25Z" class="g1_12"/>
<path fill-rule="evenodd" d="M291 1123.3h.8v-25H291v25Z" class="g1_12"/>
<path fill-rule="evenodd" d="M116.6 1125.3h.8v-25.9h-.8v25.9Z" class="g1_12"/>
<path fill-rule="evenodd" d="M116.6 1126h.8v-.7h-.8v.7Z" class="g1_12"/>
<path fill-rule="evenodd" d="M116.6 1126h.8v-.7h-.8v.7Z" class="g1_12"/>
<path fill-rule="evenodd" d="M117.4 1126H293v-.7H117.4v.7Z" class="g1_12"/>
<path fill-rule="evenodd" d="M294.1 1098.3h.8v-.7h-.8v.7Z" class="g1_12"/>
<path fill-rule="evenodd" d="M294.1 1098.3h.8v-.7h-.8v.7Z" class="g1_12"/>
<path fill-rule="evenodd" d="M294.9 1098.3H850.3v-.7H294.9v.7Z" class="g1_12"/>
<path fill-rule="evenodd" d="M850.3 1098.3h.7v-.7h-.7v.7Z" class="g1_12"/>
<path fill-rule="evenodd" d="M850.3 1098.3h.7v-.7h-.7v.7Z" class="g1_12"/>
<path fill-rule="evenodd" d="M294.1 1124h.8v-.7h-.8v.7Z" class="g1_12"/>
<path fill-rule="evenodd" d="M294.1 1124h.8v-.7h-.8v.7Z" class="g1_12"/>
<path fill-rule="evenodd" d="M294.9 1124H850.3v-.7H294.9v.7Z" class="g1_12"/>
<path fill-rule="evenodd" d="M850.3 1124h.7v-.7h-.7v.7Z" class="g1_12"/>
<path fill-rule="evenodd" d="M850.3 1124h.7v-.7h-.7v.7Z" class="g1_12"/>
<path fill-rule="evenodd" d="M294.1 1123.3h.8v-25h-.8v25Z" class="g1_12"/>
<path fill-rule="evenodd" d="M850.3 1123.3h.7v-25h-.7v25Z" class="g1_12"/>
<path fill-rule="evenodd" d="M293 1126h.8v-.7H293v.7Z" class="g1_12"/>
<path fill-rule="evenodd" d="M293.8 1126H853v-.7H293.8v.7Z" class="g1_12"/>
<path fill-rule="evenodd" d="M853 1125.3h.8v-25.9H853v25.9Z" class="g1_12"/>
<path fill-rule="evenodd" d="M853 1126h.8v-.7H853v.7Z" class="g1_12"/>
<path fill-rule="evenodd" d="M853 1126h.8v-.7H853v.7Z" class="g1_12"/>
<image clip-path="url(#c1_12)" preserveAspectRatio="none" x="93" y="110" width="638" height="268" xlink:href="img/2.jpg"/>
</svg>