<?xml version="1.0" encoding="UTF-8" standalone="no"?>
<!DOCTYPE svg PUBLIC "-//W3C//DTD SVG 1.1//EN"
"http://www.w3.org/Graphics/SVG/1.1/DTD/svg11.dtd">
<svg viewBox="0 0 909 1286" version="1.1" xmlns="http://www.w3.org/2000/svg" xmlns:xlink="http://www.w3.org/1999/xlink">
<defs>
<clipPath id="c0_11"><path d="M421.5 1210.1v-33.9H475v33.9Z"/></clipPath>
<style type="text/css"><![CDATA[
.g0_11{
fill: #4472C4;
}
.g1_11{
fill: #FFF;
}
.g2_11{
fill: #000;
}
]]></style>
</defs>
<path fill-rule="evenodd" d="M49.7 88.9H836.2v-.7H49.7v.7Z" class="g0_11"/>
<path fill-rule="evenodd" d="M49.7 1161.4H836.2v-1.1H49.7v1.1Z" class="g0_11"/>
<image clip-path="url(#c0_11)" preserveAspectRatio="none" x="422" y="1176" width="53" height="34" xlink:href="img/1.png"/>
<path fill-rule="evenodd" d="M65.5 132.8H836.2V109.6H65.5v23.2Z" class="g1_11"/>
<path fill-rule="evenodd" d="M213.4 137.7h.8v-4.9h-.8v4.9Z" class="g2_11"/>
<path fill-rule="evenodd" d="M213.4 133.5h.8v-.7h-.8v.7Z" class="g2_11"/>
<path fill-rule="evenodd" d="M214.2 133.5H404.3v-.7H214.2v.7Z" class="g2_11"/>
<path fill-rule="evenodd" d="M404.3 133.5h.8v-.7h-.8v.7Z" class="g2_11"/>
<path fill-rule="evenodd" d="M405.1 133.5H773.5v-.7H405.1v.7Z" class="g2_11"/>
<path fill-rule="evenodd" d="M773.5 137.7h.7v-4.9h-.7v4.9Z" class="g2_11"/>
<path fill-rule="evenodd" d="M773.5 133.5h.7v-.7h-.7v.7Z" class="g2_11"/>
<path fill-rule="evenodd" d="M216.2 136.6h.7v-.7h-.7v.7Z" class="g2_11"/>
<path fill-rule="evenodd" d="M216.2 136.6h.7v-.7h-.7v.7Z" class="g2_11"/>
<path fill-rule="evenodd" d="M216.9 136.6H402.3v-.7H216.9v.7Z" class="g2_11"/>
<path fill-rule="evenodd" d="M402.3 136.6h.7v-.7h-.7v.7Z" class="g2_11"/>
<path fill-rule="evenodd" d="M402.3 136.6h.7v-.7h-.7v.7Z" class="g2_11"/>
<path fill-rule="evenodd" d="M216.2 162.3h.7v-.8h-.7v.8Z" class="g2_11"/>
<path fill-rule="evenodd" d="M216.2 162.3h.7v-.8h-.7v.8Z" class="g2_11"/>
<path fill-rule="evenodd" d="M216.9 162.3H402.3v-.8H216.9v.8Z" class="g2_11"/>
<path fill-rule="evenodd" d="M402.3 162.3h.7v-.8h-.7v.8Z" class="g2_11"/>
<path fill-rule="evenodd" d="M402.3 162.3h.7v-.8h-.7v.8Z" class="g2_11"/>
<path fill-rule="evenodd" d="M216.2 161.5h.7V136.6h-.7v24.9Z" class="g2_11"/>
<path fill-rule="evenodd" d="M402.3 161.5h.7V136.6h-.7v24.9Z" class="g2_11"/>
<path fill-rule="evenodd" d="M213.4 163.6h.8V137.7h-.8v25.9Z" class="g2_11"/>
<path fill-rule="evenodd" d="M405.4 136.6h.8v-.7h-.8v.7Z" class="g2_11"/>
<path fill-rule="evenodd" d="M405.4 136.6h.8v-.7h-.8v.7Z" class="g2_11"/>
<path fill-rule="evenodd" d="M406.2 136.6H770.7v-.7H406.2v.7Z" class="g2_11"/>
<path fill-rule="evenodd" d="M770.7 136.6h.8v-.7h-.8v.7Z" class="g2_11"/>
<path fill-rule="evenodd" d="M770.7 136.6h.8v-.7h-.8v.7Z" class="g2_11"/>
<path fill-rule="evenodd" d="M405.4 162.3h.8v-.8h-.8v.8Z" class="g2_11"/>
<path fill-rule="evenodd" d="M405.4 162.3h.8v-.8h-.8v.8Z" class="g2_11"/>
<path fill-rule="evenodd" d="M406.2 162.3H770.7v-.8H406.2v.8Z" class="g2_11"/>
<path fill-rule="evenodd" d="M770.7 162.3h.8v-.8h-.8v.8Z" class="g2_11"/>
<path fill-rule="evenodd" d="M770.7 162.3h.8v-.8h-.8v.8Z" class="g2_11"/>
<path fill-rule="evenodd" d="M405.4 161.5h.8V136.6h-.8v24.9Z" class="g2_11"/>
<path fill-rule="evenodd" d="M770.7 161.5h.8V136.6h-.8v24.9Z" class="g2_11"/>
<path fill-rule="evenodd" d="M773.5 163.6h.7V137.7h-.7v25.9Z" class="g2_11"/>
<path fill-rule="evenodd" d="M213.4 166.7h.8v-3.1h-.8v3.1Z" class="g2_11"/>
<path fill-rule="evenodd" d="M773.5 166.7h.7v-3.1h-.7v3.1Z" class="g2_11"/>
<path fill-rule="evenodd" d="M216.2 165.6h.7v-.8h-.7v.8Z" class="g2_11"/>
<path fill-rule="evenodd" d="M216.2 165.6h.7v-.8h-.7v.8Z" class="g2_11"/>
<path fill-rule="evenodd" d="M216.9 165.6H402.3v-.8H216.9v.8Z" class="g2_11"/>
<path fill-rule="evenodd" d="M402.3 165.6h.7v-.8h-.7v.8Z" class="g2_11"/>
<path fill-rule="evenodd" d="M402.3 165.6h.7v-.8h-.7v.8Z" class="g2_11"/>
<path fill-rule="evenodd" d="M216.2 191.2h.7v-.7h-.7v.7Z" class="g2_11"/>
<path fill-rule="evenodd" d="M216.2 191.2h.7v-.7h-.7v.7Z" class="g2_11"/>
<path fill-rule="evenodd" d="M216.9 191.2H402.3v-.7H216.9v.7Z" class="g2_11"/>
<path fill-rule="evenodd" d="M402.3 191.2h.7v-.7h-.7v.7Z" class="g2_11"/>
<path fill-rule="evenodd" d="M402.3 191.2h.7v-.7h-.7v.7Z" class="g2_11"/>
<path fill-rule="evenodd" d="M216.2 190.5h.7V165.6h-.7v24.9Z" class="g2_11"/>
<path fill-rule="evenodd" d="M402.3 190.5h.7V165.6h-.7v24.9Z" class="g2_11"/>
<path fill-rule="evenodd" d="M213.4 192.5h.8V166.7h-.8v25.8Z" class="g2_11"/>
<path fill-rule="evenodd" d="M405.4 165.6h.8v-.8h-.8v.8Z" class="g2_11"/>
<path fill-rule="evenodd" d="M405.4 165.6h.8v-.8h-.8v.8Z" class="g2_11"/>
<path fill-rule="evenodd" d="M406.2 165.6H770.7v-.8H406.2v.8Z" class="g2_11"/>
<path fill-rule="evenodd" d="M770.7 165.6h.8v-.8h-.8v.8Z" class="g2_11"/>
<path fill-rule="evenodd" d="M770.7 165.6h.8v-.8h-.8v.8Z" class="g2_11"/>
<path fill-rule="evenodd" d="M405.4 191.2h.8v-.7h-.8v.7Z" class="g2_11"/>
<path fill-rule="evenodd" d="M405.4 191.2h.8v-.7h-.8v.7Z" class="g2_11"/>
<path fill-rule="evenodd" d="M406.2 191.2H770.7v-.7H406.2v.7Z" class="g2_11"/>
<path fill-rule="evenodd" d="M770.7 191.2h.8v-.7h-.8v.7Z" class="g2_11"/>
<path fill-rule="evenodd" d="M770.7 191.2h.8v-.7h-.8v.7Z" class="g2_11"/>
<path fill-rule="evenodd" d="M405.4 190.5h.8V165.6h-.8v24.9Z" class="g2_11"/>
<path fill-rule="evenodd" d="M770.7 190.5h.8V165.6h-.8v24.9Z" class="g2_11"/>
<path fill-rule="evenodd" d="M773.5 192.5h.7V166.7h-.7v25.8Z" class="g2_11"/>
<path fill-rule="evenodd" d="M213.4 195.6h.8v-3.1h-.8v3.1Z" class="g2_11"/>
<path fill-rule="evenodd" d="M773.5 195.6h.7v-3.1h-.7v3.1Z" class="g2_11"/>
<path fill-rule="evenodd" d="M216.2 194.5h.7v-.7h-.7v.7Z" class="g2_11"/>
<path fill-rule="evenodd" d="M216.2 194.5h.7v-.7h-.7v.7Z" class="g2_11"/>
<path fill-rule="evenodd" d="M216.9 194.5H402.3v-.7H216.9v.7Z" class="g2_11"/>
<path fill-rule="evenodd" d="M402.3 194.5h.7v-.7h-.7v.7Z" class="g2_11"/>
<path fill-rule="evenodd" d="M402.3 194.5h.7v-.7h-.7v.7Z" class="g2_11"/>
<path fill-rule="evenodd" d="M216.2 220.2h.7v-.7h-.7v.7Z" class="g2_11"/>
<path fill-rule="evenodd" d="M216.2 220.2h.7v-.7h-.7v.7Z" class="g2_11"/>
<path fill-rule="evenodd" d="M216.9 220.2H402.3v-.7H216.9v.7Z" class="g2_11"/>
<path fill-rule="evenodd" d="M402.3 220.2h.7v-.7h-.7v.7Z" class="g2_11"/>
<path fill-rule="evenodd" d="M402.3 220.2h.7v-.7h-.7v.7Z" class="g2_11"/>
<path fill-rule="evenodd" d="M216.2 219.5h.7v-25h-.7v25Z" class="g2_11"/>
<path fill-rule="evenodd" d="M402.3 219.5h.7v-25h-.7v25Z" class="g2_11"/>
<path fill-rule="evenodd" d="M213.4 221.5h.8V195.6h-.8v25.9Z" class="g2_11"/>
<path fill-rule="evenodd" d="M405.4 194.5h.8v-.7h-.8v.7Z" class="g2_11"/>
<path fill-rule="evenodd" d="M405.4 194.5h.8v-.7h-.8v.7Z" class="g2_11"/>
<path fill-rule="evenodd" d="M406.2 194.5H770.7v-.7H406.2v.7Z" class="g2_11"/>
<path fill-rule="evenodd" d="M770.7 194.5h.8v-.7h-.8v.7Z" class="g2_11"/>
<path fill-rule="evenodd" d="M770.7 194.5h.8v-.7h-.8v.7Z" class="g2_11"/>
<path fill-rule="evenodd" d="M405.4 220.2h.8v-.7h-.8v.7Z" class="g2_11"/>
<path fill-rule="evenodd" d="M405.4 220.2h.8v-.7h-.8v.7Z" class="g2_11"/>
<path fill-rule="evenodd" d="M406.2 220.2H770.7v-.7H406.2v.7Z" class="g2_11"/>
<path fill-rule="evenodd" d="M770.7 220.2h.8v-.7h-.8v.7Z" class="g2_11"/>
<path fill-rule="evenodd" d="M770.7 220.2h.8v-.7h-.8v.7Z" class="g2_11"/>
<path fill-rule="evenodd" d="M405.4 219.5h.8v-25h-.8v25Z" class="g2_11"/>
<path fill-rule="evenodd" d="M770.7 219.5h.8v-25h-.8v25Z" class="g2_11"/>
<path fill-rule="evenodd" d="M773.5 221.5h.7V195.6h-.7v25.9Z" class="g2_11"/>
<path fill-rule="evenodd" d="M213.4 224.6h.8v-3.1h-.8v3.1Z" class="g2_11"/>
<path fill-rule="evenodd" d="M773.5 224.6h.7v-3.1h-.7v3.1Z" class="g2_11"/>
<path fill-rule="evenodd" d="M216.2 223.5h.7v-.7h-.7v.7Z" class="g2_11"/>
<path fill-rule="evenodd" d="M216.2 223.5h.7v-.7h-.7v.7Z" class="g2_11"/>
<path fill-rule="evenodd" d="M216.9 223.5H402.3v-.7H216.9v.7Z" class="g2_11"/>
<path fill-rule="evenodd" d="M402.3 223.5h.7v-.7h-.7v.7Z" class="g2_11"/>
<path fill-rule="evenodd" d="M402.3 223.5h.7v-.7h-.7v.7Z" class="g2_11"/>
<path fill-rule="evenodd" d="M216.2 249.2h.7v-.8h-.7v.8Z" class="g2_11"/>
<path fill-rule="evenodd" d="M216.2 249.2h.7v-.8h-.7v.8Z" class="g2_11"/>
<path fill-rule="evenodd" d="M216.9 249.2H402.3v-.8H216.9v.8Z" class="g2_11"/>
<path fill-rule="evenodd" d="M402.3 249.2h.7v-.8h-.7v.8Z" class="g2_11"/>
<path fill-rule="evenodd" d="M402.3 249.2h.7v-.8h-.7v.8Z" class="g2_11"/>
<path fill-rule="evenodd" d="M216.2 248.4h.7V223.5h-.7v24.9Z" class="g2_11"/>
<path fill-rule="evenodd" d="M402.3 248.4h.7V223.5h-.7v24.9Z" class="g2_11"/>
<path fill-rule="evenodd" d="M213.4 250.5h.8V224.6h-.8v25.9Z" class="g2_11"/>
<path fill-rule="evenodd" d="M405.4 223.5h.8v-.7h-.8v.7Z" class="g2_11"/>
<path fill-rule="evenodd" d="M405.4 223.5h.8v-.7h-.8v.7Z" class="g2_11"/>
<path fill-rule="evenodd" d="M406.2 223.5H770.7v-.7H406.2v.7Z" class="g2_11"/>
<path fill-rule="evenodd" d="M770.7 223.5h.8v-.7h-.8v.7Z" class="g2_11"/>
<path fill-rule="evenodd" d="M770.7 223.5h.8v-.7h-.8v.7Z" class="g2_11"/>
<path fill-rule="evenodd" d="M405.4 249.2h.8v-.8h-.8v.8Z" class="g2_11"/>
<path fill-rule="evenodd" d="M405.4 249.2h.8v-.8h-.8v.8Z" class="g2_11"/>
<path fill-rule="evenodd" d="M406.2 249.2H770.7v-.8H406.2v.8Z" class="g2_11"/>
<path fill-rule="evenodd" d="M770.7 249.2h.8v-.8h-.8v.8Z" class="g2_11"/>
<path fill-rule="evenodd" d="M770.7 249.2h.8v-.8h-.8v.8Z" class="g2_11"/>
<path fill-rule="evenodd" d="M405.4 248.4h.8V223.5h-.8v24.9Z" class="g2_11"/>
<path fill-rule="evenodd" d="M770.7 248.4h.8V223.5h-.8v24.9Z" class="g2_11"/>
<path fill-rule="evenodd" d="M773.5 250.5h.7V224.6h-.7v25.9Z" class="g2_11"/>
<path fill-rule="evenodd" d="M213.4 253.6h.8v-3.1h-.8v3.1Z" class="g2_11"/>
<path fill-rule="evenodd" d="M773.5 253.6h.7v-3.1h-.7v3.1Z" class="g2_11"/>
<path fill-rule="evenodd" d="M216.2 252.5h.7v-.8h-.7v.8Z" class="g2_11"/>
<path fill-rule="evenodd" d="M216.2 252.5h.7v-.8h-.7v.8Z" class="g2_11"/>
<path fill-rule="evenodd" d="M216.9 252.5H402.3v-.8H216.9v.8Z" class="g2_11"/>
<path fill-rule="evenodd" d="M402.3 252.5h.7v-.8h-.7v.8Z" class="g2_11"/>
<path fill-rule="evenodd" d="M402.3 252.5h.7v-.8h-.7v.8Z" class="g2_11"/>
<path fill-rule="evenodd" d="M216.2 278.1h.7v-.7h-.7v.7Z" class="g2_11"/>
<path fill-rule="evenodd" d="M216.2 278.1h.7v-.7h-.7v.7Z" class="g2_11"/>
<path fill-rule="evenodd" d="M216.9 278.1H402.3v-.7H216.9v.7Z" class="g2_11"/>
<path fill-rule="evenodd" d="M402.3 278.1h.7v-.7h-.7v.7Z" class="g2_11"/>
<path fill-rule="evenodd" d="M402.3 278.1h.7v-.7h-.7v.7Z" class="g2_11"/>
<path fill-rule="evenodd" d="M216.2 277.4h.7V252.5h-.7v24.9Z" class="g2_11"/>
<path fill-rule="evenodd" d="M402.3 277.4h.7V252.5h-.7v24.9Z" class="g2_11"/>
<path fill-rule="evenodd" d="M213.4 279.4h.8V253.6h-.8v25.8Z" class="g2_11"/>
<path fill-rule="evenodd" d="M405.4 252.5h.8v-.8h-.8v.8Z" class="g2_11"/>
<path fill-rule="evenodd" d="M405.4 252.5h.8v-.8h-.8v.8Z" class="g2_11"/>
<path fill-rule="evenodd" d="M406.2 252.5H770.7v-.8H406.2v.8Z" class="g2_11"/>
<path fill-rule="evenodd" d="M770.7 252.5h.8v-.8h-.8v.8Z" class="g2_11"/>
<path fill-rule="evenodd" d="M770.7 252.5h.8v-.8h-.8v.8Z" class="g2_11"/>
<path fill-rule="evenodd" d="M405.4 278.1h.8v-.7h-.8v.7Z" class="g2_11"/>
<path fill-rule="evenodd" d="M405.4 278.1h.8v-.7h-.8v.7Z" class="g2_11"/>
<path fill-rule="evenodd" d="M406.2 278.1H770.7v-.7H406.2v.7Z" class="g2_11"/>
<path fill-rule="evenodd" d="M770.7 278.1h.8v-.7h-.8v.7Z" class="g2_11"/>
<path fill-rule="evenodd" d="M770.7 278.1h.8v-.7h-.8v.7Z" class="g2_11"/>
<path fill-rule="evenodd" d="M405.4 277.4h.8V252.5h-.8v24.9Z" class="g2_11"/>
<path fill-rule="evenodd" d="M770.7 277.4h.8V252.5h-.8v24.9Z" class="g2_11"/>
<path fill-rule="evenodd" d="M773.5 279.4h.7V253.6h-.7v25.8Z" class="g2_11"/>
<path fill-rule="evenodd" d="M213.4 282.5h.8v-3.1h-.8v3.1Z" class="g2_11"/>
<path fill-rule="evenodd" d="M773.5 282.5h.7v-3.1h-.7v3.1Z" class="g2_11"/>
<path fill-rule="evenodd" d="M216.2 281.4h.7v-.7h-.7v.7Z" class="g2_11"/>
<path fill-rule="evenodd" d="M216.2 281.4h.7v-.7h-.7v.7Z" class="g2_11"/>
<path fill-rule="evenodd" d="M216.9 281.4H402.3v-.7H216.9v.7Z" class="g2_11"/>
<path fill-rule="evenodd" d="M402.3 281.4h.7v-.7h-.7v.7Z" class="g2_11"/>
<path fill-rule="evenodd" d="M402.3 281.4h.7v-.7h-.7v.7Z" class="g2_11"/>
<path fill-rule="evenodd" d="M216.2 307.1h.7v-.7h-.7v.7Z" class="g2_11"/>
<path fill-rule="evenodd" d="M216.2 307.1h.7v-.7h-.7v.7Z" class="g2_11"/>
<path fill-rule="evenodd" d="M216.9 307.1H402.3v-.7H216.9v.7Z" class="g2_11"/>
<path fill-rule="evenodd" d="M402.3 307.1h.7v-.7h-.7v.7Z" class="g2_11"/>
<path fill-rule="evenodd" d="M402.3 307.1h.7v-.7h-.7v.7Z" class="g2_11"/>
<path fill-rule="evenodd" d="M216.2 306.4h.7v-25h-.7v25Z" class="g2_11"/>
<path fill-rule="evenodd" d="M402.3 306.4h.7v-25h-.7v25Z" class="g2_11"/>
<path fill-rule="evenodd" d="M213.4 308.4h.8V282.5h-.8v25.9Z" class="g2_11"/>
<path fill-rule="evenodd" d="M405.4 281.4h.8v-.7h-.8v.7Z" class="g2_11"/>
<path fill-rule="evenodd" d="M405.4 281.4h.8v-.7h-.8v.7Z" class="g2_11"/>
<path fill-rule="evenodd" d="M406.2 281.4H770.7v-.7H406.2v.7Z" class="g2_11"/>
<path fill-rule="evenodd" d="M770.7 281.4h.8v-.7h-.8v.7Z" class="g2_11"/>
<path fill-rule="evenodd" d="M770.7 281.4h.8v-.7h-.8v.7Z" class="g2_11"/>
<path fill-rule="evenodd" d="M405.4 307.1h.8v-.7h-.8v.7Z" class="g2_11"/>
<path fill-rule="evenodd" d="M405.4 307.1h.8v-.7h-.8v.7Z" class="g2_11"/>
<path fill-rule="evenodd" d="M406.2 307.1H770.7v-.7H406.2v.7Z" class="g2_11"/>
<path fill-rule="evenodd" d="M770.7 307.1h.8v-.7h-.8v.7Z" class="g2_11"/>
<path fill-rule="evenodd" d="M770.7 307.1h.8v-.7h-.8v.7Z" class="g2_11"/>
<path fill-rule="evenodd" d="M405.4 306.4h.8v-25h-.8v25Z" class="g2_11"/>
<path fill-rule="evenodd" d="M770.7 306.4h.8v-25h-.8v25Z" class="g2_11"/>
<path fill-rule="evenodd" d="M773.5 308.4h.7V282.5h-.7v25.9Z" class="g2_11"/>
<path fill-rule="evenodd" d="M213.4 311.5h.8v-3.1h-.8v3.1Z" class="g2_11"/>
<path fill-rule="evenodd" d="M773.5 311.5h.7v-3.1h-.7v3.1Z" class="g2_11"/>
<path fill-rule="evenodd" d="M216.2 310.4h.7v-.7h-.7v.7Z" class="g2_11"/>
<path fill-rule="evenodd" d="M216.2 310.4h.7v-.7h-.7v.7Z" class="g2_11"/>
<path fill-rule="evenodd" d="M216.9 310.4H402.3v-.7H216.9v.7Z" class="g2_11"/>
<path fill-rule="evenodd" d="M402.3 310.4h.7v-.7h-.7v.7Z" class="g2_11"/>
<path fill-rule="evenodd" d="M402.3 310.4h.7v-.7h-.7v.7Z" class="g2_11"/>
<path fill-rule="evenodd" d="M216.2 336.1h.7v-.8h-.7v.8Z" class="g2_11"/>
<path fill-rule="evenodd" d="M216.2 336.1h.7v-.8h-.7v.8Z" class="g2_11"/>
<path fill-rule="evenodd" d="M216.9 336.1H402.3v-.8H216.9v.8Z" class="g2_11"/>
<path fill-rule="evenodd" d="M402.3 336.1h.7v-.8h-.7v.8Z" class="g2_11"/>
<path fill-rule="evenodd" d="M402.3 336.1h.7v-.8h-.7v.8Z" class="g2_11"/>
<path fill-rule="evenodd" d="M216.2 335.3h.7V310.4h-.7v24.9Z" class="g2_11"/>
<path fill-rule="evenodd" d="M402.3 335.3h.7V310.4h-.7v24.9Z" class="g2_11"/>
<path fill-rule="evenodd" d="M213.4 337.4h.8V311.5h-.8v25.9Z" class="g2_11"/>
<path fill-rule="evenodd" d="M405.4 310.4h.8v-.7h-.8v.7Z" class="g2_11"/>
<path fill-rule="evenodd" d="M405.4 310.4h.8v-.7h-.8v.7Z" class="g2_11"/>
<path fill-rule="evenodd" d="M406.2 310.4H770.7v-.7H406.2v.7Z" class="g2_11"/>
<path fill-rule="evenodd" d="M770.7 310.4h.8v-.7h-.8v.7Z" class="g2_11"/>
<path fill-rule="evenodd" d="M770.7 310.4h.8v-.7h-.8v.7Z" class="g2_11"/>
<path fill-rule="evenodd" d="M405.4 336.1h.8v-.8h-.8v.8Z" class="g2_11"/>
<path fill-rule="evenodd" d="M405.4 336.1h.8v-.8h-.8v.8Z" class="g2_11"/>
<path fill-rule="evenodd" d="M406.2 336.1H770.7v-.8H406.2v.8Z" class="g2_11"/>
<path fill-rule="evenodd" d="M770.7 336.1h.8v-.8h-.8v.8Z" class="g2_11"/>
<path fill-rule="evenodd" d="M770.7 336.1h.8v-.8h-.8v.8Z" class="g2_11"/>
<path fill-rule="evenodd" d="M405.4 335.3h.8V310.4h-.8v24.9Z" class="g2_11"/>
<path fill-rule="evenodd" d="M770.7 335.3h.8V310.4h-.8v24.9Z" class="g2_11"/>
<path fill-rule="evenodd" d="M773.5 337.4h.7V311.5h-.7v25.9Z" class="g2_11"/>
<path fill-rule="evenodd" d="M213.4 340.5h.8v-3.1h-.8v3.1Z" class="g2_11"/>
<path fill-rule="evenodd" d="M773.5 340.5h.7v-3.1h-.7v3.1Z" class="g2_11"/>
<path fill-rule="evenodd" d="M216.2 339.4h.7v-.8h-.7v.8Z" class="g2_11"/>
<path fill-rule="evenodd" d="M216.2 339.4h.7v-.8h-.7v.8Z" class="g2_11"/>
<path fill-rule="evenodd" d="M216.9 339.4H402.3v-.8H216.9v.8Z" class="g2_11"/>
<path fill-rule="evenodd" d="M402.3 339.4h.7v-.8h-.7v.8Z" class="g2_11"/>
<path fill-rule="evenodd" d="M402.3 339.4h.7v-.8h-.7v.8Z" class="g2_11"/>
<path fill-rule="evenodd" d="M216.2 364.9h.7v-.8h-.7v.8Z" class="g2_11"/>
<path fill-rule="evenodd" d="M216.2 364.9h.7v-.8h-.7v.8Z" class="g2_11"/>
<path fill-rule="evenodd" d="M216.9 364.9H402.3v-.8H216.9v.8Z" class="g2_11"/>
<path fill-rule="evenodd" d="M402.3 364.9h.7v-.8h-.7v.8Z" class="g2_11"/>
<path fill-rule="evenodd" d="M402.3 364.9h.7v-.8h-.7v.8Z" class="g2_11"/>
<path fill-rule="evenodd" d="M216.2 364.1h.7V339.4h-.7v24.7Z" class="g2_11"/>
<path fill-rule="evenodd" d="M402.3 364.1h.7V339.4h-.7v24.7Z" class="g2_11"/>
<path fill-rule="evenodd" d="M213.4 366.1h.8V340.5h-.8v25.6Z" class="g2_11"/>
<path fill-rule="evenodd" d="M405.4 339.4h.8v-.8h-.8v.8Z" class="g2_11"/>
<path fill-rule="evenodd" d="M405.4 339.4h.8v-.8h-.8v.8Z" class="g2_11"/>
<path fill-rule="evenodd" d="M406.2 339.4H770.7v-.8H406.2v.8Z" class="g2_11"/>
<path fill-rule="evenodd" d="M770.7 339.4h.8v-.8h-.8v.8Z" class="g2_11"/>
<path fill-rule="evenodd" d="M770.7 339.4h.8v-.8h-.8v.8Z" class="g2_11"/>
<path fill-rule="evenodd" d="M405.4 364.9h.8v-.8h-.8v.8Z" class="g2_11"/>
<path fill-rule="evenodd" d="M405.4 364.9h.8v-.8h-.8v.8Z" class="g2_11"/>
<path fill-rule="evenodd" d="M406.2 364.9H770.7v-.8H406.2v.8Z" class="g2_11"/>
<path fill-rule="evenodd" d="M770.7 364.9h.8v-.8h-.8v.8Z" class="g2_11"/>
<path fill-rule="evenodd" d="M770.7 364.9h.8v-.8h-.8v.8Z" class="g2_11"/>
<path fill-rule="evenodd" d="M405.4 364.1h.8V339.4h-.8v24.7Z" class="g2_11"/>
<path fill-rule="evenodd" d="M770.7 364.1h.8V339.4h-.8v24.7Z" class="g2_11"/>
<path fill-rule="evenodd" d="M773.5 366.1h.7V340.5h-.7v25.6Z" class="g2_11"/>
<path fill-rule="evenodd" d="M213.4 369.3h.8v-3.2h-.8v3.2Z" class="g2_11"/>
<path fill-rule="evenodd" d="M773.5 369.3h.7v-3.2h-.7v3.2Z" class="g2_11"/>
<path fill-rule="evenodd" d="M216.2 368.2h.7v-.8h-.7v.8Z" class="g2_11"/>
<path fill-rule="evenodd" d="M216.2 368.2h.7v-.8h-.7v.8Z" class="g2_11"/>
<path fill-rule="evenodd" d="M216.9 368.2H402.3v-.8H216.9v.8Z" class="g2_11"/>
<path fill-rule="evenodd" d="M402.3 368.2h.7v-.8h-.7v.8Z" class="g2_11"/>
<path fill-rule="evenodd" d="M402.3 368.2h.7v-.8h-.7v.8Z" class="g2_11"/>
<path fill-rule="evenodd" d="M216.2 393.9h.7v-.8h-.7v.8Z" class="g2_11"/>
<path fill-rule="evenodd" d="M216.2 393.9h.7v-.8h-.7v.8Z" class="g2_11"/>
<path fill-rule="evenodd" d="M216.9 393.9H402.3v-.8H216.9v.8Z" class="g2_11"/>
<path fill-rule="evenodd" d="M402.3 393.9h.7v-.8h-.7v.8Z" class="g2_11"/>
<path fill-rule="evenodd" d="M402.3 393.9h.7v-.8h-.7v.8Z" class="g2_11"/>
<path fill-rule="evenodd" d="M216.2 393.1h.7V368.2h-.7v24.9Z" class="g2_11"/>
<path fill-rule="evenodd" d="M402.3 393.1h.7V368.2h-.7v24.9Z" class="g2_11"/>
<path fill-rule="evenodd" d="M213.4 395.2h.8V369.3h-.8v25.9Z" class="g2_11"/>
<path fill-rule="evenodd" d="M405.4 368.2h.8v-.8h-.8v.8Z" class="g2_11"/>
<path fill-rule="evenodd" d="M405.4 368.2h.8v-.8h-.8v.8Z" class="g2_11"/>
<path fill-rule="evenodd" d="M406.2 368.2H770.7v-.8H406.2v.8Z" class="g2_11"/>
<path fill-rule="evenodd" d="M770.7 368.2h.8v-.8h-.8v.8Z" class="g2_11"/>
<path fill-rule="evenodd" d="M770.7 368.2h.8v-.8h-.8v.8Z" class="g2_11"/>
<path fill-rule="evenodd" d="M405.4 393.9h.8v-.8h-.8v.8Z" class="g2_11"/>
<path fill-rule="evenodd" d="M405.4 393.9h.8v-.8h-.8v.8Z" class="g2_11"/>
<path fill-rule="evenodd" d="M406.2 393.9H770.7v-.8H406.2v.8Z" class="g2_11"/>
<path fill-rule="evenodd" d="M770.7 393.9h.8v-.8h-.8v.8Z" class="g2_11"/>
<path fill-rule="evenodd" d="M770.7 393.9h.8v-.8h-.8v.8Z" class="g2_11"/>
<path fill-rule="evenodd" d="M405.4 393.1h.8V368.2h-.8v24.9Z" class="g2_11"/>
<path fill-rule="evenodd" d="M770.7 393.1h.8V368.2h-.8v24.9Z" class="g2_11"/>
<path fill-rule="evenodd" d="M773.5 395.2h.7V369.3h-.7v25.9Z" class="g2_11"/>
<path fill-rule="evenodd" d="M213.4 398.3h.8v-3.1h-.8v3.1Z" class="g2_11"/>
<path fill-rule="evenodd" d="M773.5 398.3h.7v-3.1h-.7v3.1Z" class="g2_11"/>
<path fill-rule="evenodd" d="M216.2 397.2h.7v-.8h-.7v.8Z" class="g2_11"/>
<path fill-rule="evenodd" d="M216.2 397.2h.7v-.8h-.7v.8Z" class="g2_11"/>
<path fill-rule="evenodd" d="M216.9 397.2H402.3v-.8H216.9v.8Z" class="g2_11"/>
<path fill-rule="evenodd" d="M402.3 397.2h.7v-.8h-.7v.8Z" class="g2_11"/>
<path fill-rule="evenodd" d="M402.3 397.2h.7v-.8h-.7v.8Z" class="g2_11"/>
<path fill-rule="evenodd" d="M216.2 422.8h.7v-.7h-.7v.7Z" class="g2_11"/>
<path fill-rule="evenodd" d="M216.2 422.8h.7v-.7h-.7v.7Z" class="g2_11"/>
<path fill-rule="evenodd" d="M216.9 422.8H402.3v-.7H216.9v.7Z" class="g2_11"/>
<path fill-rule="evenodd" d="M402.3 422.8h.7v-.7h-.7v.7Z" class="g2_11"/>
<path fill-rule="evenodd" d="M402.3 422.8h.7v-.7h-.7v.7Z" class="g2_11"/>
<path fill-rule="evenodd" d="M216.2 422.1h.7V397.2h-.7v24.9Z" class="g2_11"/>
<path fill-rule="evenodd" d="M402.3 422.1h.7V397.2h-.7v24.9Z" class="g2_11"/>
<path fill-rule="evenodd" d="M213.4 424.1h.8V398.3h-.8v25.8Z" class="g2_11"/>
<path fill-rule="evenodd" d="M405.4 397.2h.8v-.8h-.8v.8Z" class="g2_11"/>
<path fill-rule="evenodd" d="M405.4 397.2h.8v-.8h-.8v.8Z" class="g2_11"/>
<path fill-rule="evenodd" d="M406.2 397.2H770.7v-.8H406.2v.8Z" class="g2_11"/>
<path fill-rule="evenodd" d="M770.7 397.2h.8v-.8h-.8v.8Z" class="g2_11"/>
<path fill-rule="evenodd" d="M770.7 397.2h.8v-.8h-.8v.8Z" class="g2_11"/>
<path fill-rule="evenodd" d="M405.4 422.8h.8v-.7h-.8v.7Z" class="g2_11"/>
<path fill-rule="evenodd" d="M405.4 422.8h.8v-.7h-.8v.7Z" class="g2_11"/>
<path fill-rule="evenodd" d="M406.2 422.8H770.7v-.7H406.2v.7Z" class="g2_11"/>
<path fill-rule="evenodd" d="M770.7 422.8h.8v-.7h-.8v.7Z" class="g2_11"/>
<path fill-rule="evenodd" d="M770.7 422.8h.8v-.7h-.8v.7Z" class="g2_11"/>
<path fill-rule="evenodd" d="M405.4 422.1h.8V397.2h-.8v24.9Z" class="g2_11"/>
<path fill-rule="evenodd" d="M770.7 422.1h.8V397.2h-.8v24.9Z" class="g2_11"/>
<path fill-rule="evenodd" d="M773.5 424.1h.7V398.3h-.7v25.8Z" class="g2_11"/>
<path fill-rule="evenodd" d="M213.4 427.2h.8v-3.1h-.8v3.1Z" class="g2_11"/>
<path fill-rule="evenodd" d="M773.5 427.2h.7v-3.1h-.7v3.1Z" class="g2_11"/>
<path fill-rule="evenodd" d="M216.2 426.1h.7v-.7h-.7v.7Z" class="g2_11"/>
<path fill-rule="evenodd" d="M216.2 426.1h.7v-.7h-.7v.7Z" class="g2_11"/>
<path fill-rule="evenodd" d="M216.9 426.1H402.3v-.7H216.9v.7Z" class="g2_11"/>
<path fill-rule="evenodd" d="M402.3 426.1h.7v-.7h-.7v.7Z" class="g2_11"/>
<path fill-rule="evenodd" d="M402.3 426.1h.7v-.7h-.7v.7Z" class="g2_11"/>
<path fill-rule="evenodd" d="M216.2 451.8h.7v-.7h-.7v.7Z" class="g2_11"/>
<path fill-rule="evenodd" d="M216.2 451.8h.7v-.7h-.7v.7Z" class="g2_11"/>
<path fill-rule="evenodd" d="M216.9 451.8H402.3v-.7H216.9v.7Z" class="g2_11"/>
<path fill-rule="evenodd" d="M402.3 451.8h.7v-.7h-.7v.7Z" class="g2_11"/>
<path fill-rule="evenodd" d="M402.3 451.8h.7v-.7h-.7v.7Z" class="g2_11"/>
<path fill-rule="evenodd" d="M216.2 451.1h.7v-25h-.7v25Z" class="g2_11"/>
<path fill-rule="evenodd" d="M402.3 451.1h.7v-25h-.7v25Z" class="g2_11"/>
<path fill-rule="evenodd" d="M213.4 453.1h.8V427.2h-.8v25.9Z" class="g2_11"/>
<path fill-rule="evenodd" d="M405.4 426.1h.8v-.7h-.8v.7Z" class="g2_11"/>
<path fill-rule="evenodd" d="M405.4 426.1h.8v-.7h-.8v.7Z" class="g2_11"/>
<path fill-rule="evenodd" d="M406.2 426.1H770.7v-.7H406.2v.7Z" class="g2_11"/>
<path fill-rule="evenodd" d="M770.7 426.1h.8v-.7h-.8v.7Z" class="g2_11"/>
<path fill-rule="evenodd" d="M770.7 426.1h.8v-.7h-.8v.7Z" class="g2_11"/>
<path fill-rule="evenodd" d="M405.4 451.8h.8v-.7h-.8v.7Z" class="g2_11"/>
<path fill-rule="evenodd" d="M405.4 451.8h.8v-.7h-.8v.7Z" class="g2_11"/>
<path fill-rule="evenodd" d="M406.2 451.8H770.7v-.7H406.2v.7Z" class="g2_11"/>
<path fill-rule="evenodd" d="M770.7 451.8h.8v-.7h-.8v.7Z" class="g2_11"/>
<path fill-rule="evenodd" d="M770.7 451.8h.8v-.7h-.8v.7Z" class="g2_11"/>
<path fill-rule="evenodd" d="M405.4 451.1h.8v-25h-.8v25Z" class="g2_11"/>
<path fill-rule="evenodd" d="M770.7 451.1h.8v-25h-.8v25Z" class="g2_11"/>
<path fill-rule="evenodd" d="M773.5 453.1h.7V427.2h-.7v25.9Z" class="g2_11"/>
<path fill-rule="evenodd" d="M213.4 456.2h.8v-3.1h-.8v3.1Z" class="g2_11"/>
<path fill-rule="evenodd" d="M773.5 456.2h.7v-3.1h-.7v3.1Z" class="g2_11"/>
<path fill-rule="evenodd" d="M216.2 455.1h.7v-.7h-.7v.7Z" class="g2_11"/>
<path fill-rule="evenodd" d="M216.2 455.1h.7v-.7h-.7v.7Z" class="g2_11"/>
<path fill-rule="evenodd" d="M216.9 455.1H402.3v-.7H216.9v.7Z" class="g2_11"/>
<path fill-rule="evenodd" d="M402.3 455.1h.7v-.7h-.7v.7Z" class="g2_11"/>
<path fill-rule="evenodd" d="M402.3 455.1h.7v-.7h-.7v.7Z" class="g2_11"/>
<path fill-rule="evenodd" d="M216.2 480.8h.7V480h-.7v.8Z" class="g2_11"/>
<path fill-rule="evenodd" d="M216.2 480.8h.7V480h-.7v.8Z" class="g2_11"/>
<path fill-rule="evenodd" d="M216.9 480.8H402.3V480H216.9v.8Z" class="g2_11"/>
<path fill-rule="evenodd" d="M402.3 480.8h.7V480h-.7v.8Z" class="g2_11"/>
<path fill-rule="evenodd" d="M402.3 480.8h.7V480h-.7v.8Z" class="g2_11"/>
<path fill-rule="evenodd" d="M216.2 480h.7V455.1h-.7V480Z" class="g2_11"/>
<path fill-rule="evenodd" d="M402.3 480h.7V455.1h-.7V480Z" class="g2_11"/>
<path fill-rule="evenodd" d="M213.4 482.1h.8V456.2h-.8v25.9Z" class="g2_11"/>
<path fill-rule="evenodd" d="M405.4 455.1h.8v-.7h-.8v.7Z" class="g2_11"/>
<path fill-rule="evenodd" d="M405.4 455.1h.8v-.7h-.8v.7Z" class="g2_11"/>
<path fill-rule="evenodd" d="M406.2 455.1H770.7v-.7H406.2v.7Z" class="g2_11"/>
<path fill-rule="evenodd" d="M770.7 455.1h.8v-.7h-.8v.7Z" class="g2_11"/>
<path fill-rule="evenodd" d="M770.7 455.1h.8v-.7h-.8v.7Z" class="g2_11"/>
<path fill-rule="evenodd" d="M405.4 480.8h.8V480h-.8v.8Z" class="g2_11"/>
<path fill-rule="evenodd" d="M405.4 480.8h.8V480h-.8v.8Z" class="g2_11"/>
<path fill-rule="evenodd" d="M406.2 480.8H770.7V480H406.2v.8Z" class="g2_11"/>
<path fill-rule="evenodd" d="M770.7 480.8h.8V480h-.8v.8Z" class="g2_11"/>
<path fill-rule="evenodd" d="M770.7 480.8h.8V480h-.8v.8Z" class="g2_11"/>
<path fill-rule="evenodd" d="M405.4 480h.8V455.1h-.8V480Z" class="g2_11"/>
<path fill-rule="evenodd" d="M770.7 480h.8V455.1h-.8V480Z" class="g2_11"/>
<path fill-rule="evenodd" d="M773.5 482.1h.7V456.2h-.7v25.9Z" class="g2_11"/>
<path fill-rule="evenodd" d="M213.4 485.2h.8v-3.1h-.8v3.1Z" class="g2_11"/>
<path fill-rule="evenodd" d="M773.5 485.2h.7v-3.1h-.7v3.1Z" class="g2_11"/>
<path fill-rule="evenodd" d="M216.2 484.1h.7v-.8h-.7v.8Z" class="g2_11"/>
<path fill-rule="evenodd" d="M216.2 484.1h.7v-.8h-.7v.8Z" class="g2_11"/>
<path fill-rule="evenodd" d="M216.9 484.1H402.3v-.8H216.9v.8Z" class="g2_11"/>
<path fill-rule="evenodd" d="M402.3 484.1h.7v-.8h-.7v.8Z" class="g2_11"/>
<path fill-rule="evenodd" d="M402.3 484.1h.7v-.8h-.7v.8Z" class="g2_11"/>
<path fill-rule="evenodd" d="M216.2 509.7h.7V509h-.7v.7Z" class="g2_11"/>
<path fill-rule="evenodd" d="M216.2 509.7h.7V509h-.7v.7Z" class="g2_11"/>
<path fill-rule="evenodd" d="M216.9 509.7H402.3V509H216.9v.7Z" class="g2_11"/>
<path fill-rule="evenodd" d="M402.3 509.7h.7V509h-.7v.7Z" class="g2_11"/>
<path fill-rule="evenodd" d="M402.3 509.7h.7V509h-.7v.7Z" class="g2_11"/>
<path fill-rule="evenodd" d="M216.2 509h.7V484.1h-.7V509Z" class="g2_11"/>
<path fill-rule="evenodd" d="M402.3 509h.7V484.1h-.7V509Z" class="g2_11"/>
<path fill-rule="evenodd" d="M213.4 511h.8V485.2h-.8V511Z" class="g2_11"/>
<path fill-rule="evenodd" d="M405.4 484.1h.8v-.8h-.8v.8Z" class="g2_11"/>
<path fill-rule="evenodd" d="M405.4 484.1h.8v-.8h-.8v.8Z" class="g2_11"/>
<path fill-rule="evenodd" d="M406.2 484.1H770.7v-.8H406.2v.8Z" class="g2_11"/>
<path fill-rule="evenodd" d="M770.7 484.1h.8v-.8h-.8v.8Z" class="g2_11"/>
<path fill-rule="evenodd" d="M770.7 484.1h.8v-.8h-.8v.8Z" class="g2_11"/>
<path fill-rule="evenodd" d="M405.4 509.7h.8V509h-.8v.7Z" class="g2_11"/>
<path fill-rule="evenodd" d="M405.4 509.7h.8V509h-.8v.7Z" class="g2_11"/>
<path fill-rule="evenodd" d="M406.2 509.7H770.7V509H406.2v.7Z" class="g2_11"/>
<path fill-rule="evenodd" d="M770.7 509.7h.8V509h-.8v.7Z" class="g2_11"/>
<path fill-rule="evenodd" d="M770.7 509.7h.8V509h-.8v.7Z" class="g2_11"/>
<path fill-rule="evenodd" d="M405.4 509h.8V484.1h-.8V509Z" class="g2_11"/>
<path fill-rule="evenodd" d="M770.7 509h.8V484.1h-.8V509Z" class="g2_11"/>
<path fill-rule="evenodd" d="M773.5 511h.7V485.2h-.7V511Z" class="g2_11"/>
<path fill-rule="evenodd" d="M213.4 514.1h.8V511h-.8v3.1Z" class="g2_11"/>
<path fill-rule="evenodd" d="M773.5 514.1h.7V511h-.7v3.1Z" class="g2_11"/>
<path fill-rule="evenodd" d="M216.2 513h.7v-.7h-.7v.7Z" class="g2_11"/>
<path fill-rule="evenodd" d="M216.2 513h.7v-.7h-.7v.7Z" class="g2_11"/>
<path fill-rule="evenodd" d="M216.9 513H402.3v-.7H216.9v.7Z" class="g2_11"/>
<path fill-rule="evenodd" d="M402.3 513h.7v-.7h-.7v.7Z" class="g2_11"/>
<path fill-rule="evenodd" d="M402.3 513h.7v-.7h-.7v.7Z" class="g2_11"/>
<path fill-rule="evenodd" d="M216.2 538.7h.7V538h-.7v.7Z" class="g2_11"/>
<path fill-rule="evenodd" d="M216.2 538.7h.7V538h-.7v.7Z" class="g2_11"/>
<path fill-rule="evenodd" d="M216.9 538.7H402.3V538H216.9v.7Z" class="g2_11"/>
<path fill-rule="evenodd" d="M402.3 538.7h.7V538h-.7v.7Z" class="g2_11"/>
<path fill-rule="evenodd" d="M402.3 538.7h.7V538h-.7v.7Z" class="g2_11"/>
<path fill-rule="evenodd" d="M216.2 538h.7V513h-.7v25Z" class="g2_11"/>
<path fill-rule="evenodd" d="M402.3 538h.7V513h-.7v25Z" class="g2_11"/>
<path fill-rule="evenodd" d="M213.4 540h.8V514.1h-.8V540Z" class="g2_11"/>
<path fill-rule="evenodd" d="M405.4 513h.8v-.7h-.8v.7Z" class="g2_11"/>
<path fill-rule="evenodd" d="M405.4 513h.8v-.7h-.8v.7Z" class="g2_11"/>
<path fill-rule="evenodd" d="M406.2 513H770.7v-.7H406.2v.7Z" class="g2_11"/>
<path fill-rule="evenodd" d="M770.7 513h.8v-.7h-.8v.7Z" class="g2_11"/>
<path fill-rule="evenodd" d="M770.7 513h.8v-.7h-.8v.7Z" class="g2_11"/>
<path fill-rule="evenodd" d="M405.4 538.7h.8V538h-.8v.7Z" class="g2_11"/>
<path fill-rule="evenodd" d="M405.4 538.7h.8V538h-.8v.7Z" class="g2_11"/>
<path fill-rule="evenodd" d="M406.2 538.7H770.7V538H406.2v.7Z" class="g2_11"/>
<path fill-rule="evenodd" d="M770.7 538.7h.8V538h-.8v.7Z" class="g2_11"/>
<path fill-rule="evenodd" d="M770.7 538.7h.8V538h-.8v.7Z" class="g2_11"/>
<path fill-rule="evenodd" d="M405.4 538h.8V513h-.8v25Z" class="g2_11"/>
<path fill-rule="evenodd" d="M770.7 538h.8V513h-.8v25Z" class="g2_11"/>
<path fill-rule="evenodd" d="M773.5 540h.7V514.1h-.7V540Z" class="g2_11"/>
<path fill-rule="evenodd" d="M213.4 543.1h.8V540h-.8v3.1Z" class="g2_11"/>
<path fill-rule="evenodd" d="M773.5 543.1h.7V540h-.7v3.1Z" class="g2_11"/>
<path fill-rule="evenodd" d="M216.2 542h.7v-.7h-.7v.7Z" class="g2_11"/>
<path fill-rule="evenodd" d="M216.2 542h.7v-.7h-.7v.7Z" class="g2_11"/>
<path fill-rule="evenodd" d="M216.9 542H402.3v-.7H216.9v.7Z" class="g2_11"/>
<path fill-rule="evenodd" d="M402.3 542h.7v-.7h-.7v.7Z" class="g2_11"/>
<path fill-rule="evenodd" d="M402.3 542h.7v-.7h-.7v.7Z" class="g2_11"/>
<path fill-rule="evenodd" d="M216.2 567.7h.7v-.8h-.7v.8Z" class="g2_11"/>
<path fill-rule="evenodd" d="M216.2 567.7h.7v-.8h-.7v.8Z" class="g2_11"/>
<path fill-rule="evenodd" d="M216.9 567.7H402.3v-.8H216.9v.8Z" class="g2_11"/>
<path fill-rule="evenodd" d="M402.3 567.7h.7v-.8h-.7v.8Z" class="g2_11"/>
<path fill-rule="evenodd" d="M402.3 567.7h.7v-.8h-.7v.8Z" class="g2_11"/>
<path fill-rule="evenodd" d="M216.2 566.9h.7V542h-.7v24.9Z" class="g2_11"/>
<path fill-rule="evenodd" d="M402.3 566.9h.7V542h-.7v24.9Z" class="g2_11"/>
<path fill-rule="evenodd" d="M213.4 569h.8V543.1h-.8V569Z" class="g2_11"/>
<path fill-rule="evenodd" d="M405.4 542h.8v-.7h-.8v.7Z" class="g2_11"/>
<path fill-rule="evenodd" d="M405.4 542h.8v-.7h-.8v.7Z" class="g2_11"/>
<path fill-rule="evenodd" d="M406.2 542H770.7v-.7H406.2v.7Z" class="g2_11"/>
<path fill-rule="evenodd" d="M770.7 542h.8v-.7h-.8v.7Z" class="g2_11"/>
<path fill-rule="evenodd" d="M770.7 542h.8v-.7h-.8v.7Z" class="g2_11"/>
<path fill-rule="evenodd" d="M405.4 567.7h.8v-.8h-.8v.8Z" class="g2_11"/>
<path fill-rule="evenodd" d="M405.4 567.7h.8v-.8h-.8v.8Z" class="g2_11"/>
<path fill-rule="evenodd" d="M406.2 567.7H770.7v-.8H406.2v.8Z" class="g2_11"/>
<path fill-rule="evenodd" d="M770.7 567.7h.8v-.8h-.8v.8Z" class="g2_11"/>
<path fill-rule="evenodd" d="M770.7 567.7h.8v-.8h-.8v.8Z" class="g2_11"/>
<path fill-rule="evenodd" d="M405.4 566.9h.8V542h-.8v24.9Z" class="g2_11"/>
<path fill-rule="evenodd" d="M770.7 566.9h.8V542h-.8v24.9Z" class="g2_11"/>
<path fill-rule="evenodd" d="M773.5 569h.7V543.1h-.7V569Z" class="g2_11"/>
<path fill-rule="evenodd" d="M213.4 572.1h.8V569h-.8v3.1Z" class="g2_11"/>
<path fill-rule="evenodd" d="M773.5 572.1h.7V569h-.7v3.1Z" class="g2_11"/>
<path fill-rule="evenodd" d="M216.2 571h.7v-.8h-.7v.8Z" class="g2_11"/>
<path fill-rule="evenodd" d="M216.2 571h.7v-.8h-.7v.8Z" class="g2_11"/>
<path fill-rule="evenodd" d="M216.9 571H402.3v-.8H216.9v.8Z" class="g2_11"/>
<path fill-rule="evenodd" d="M402.3 571h.7v-.8h-.7v.8Z" class="g2_11"/>
<path fill-rule="evenodd" d="M402.3 571h.7v-.8h-.7v.8Z" class="g2_11"/>
<path fill-rule="evenodd" d="M216.2 596.6h.7v-.7h-.7v.7Z" class="g2_11"/>
<path fill-rule="evenodd" d="M216.2 596.6h.7v-.7h-.7v.7Z" class="g2_11"/>
<path fill-rule="evenodd" d="M216.9 596.6H402.3v-.7H216.9v.7Z" class="g2_11"/>
<path fill-rule="evenodd" d="M402.3 596.6h.7v-.7h-.7v.7Z" class="g2_11"/>
<path fill-rule="evenodd" d="M402.3 596.6h.7v-.7h-.7v.7Z" class="g2_11"/>
<path fill-rule="evenodd" d="M216.2 595.9h.7V571h-.7v24.9Z" class="g2_11"/>
<path fill-rule="evenodd" d="M402.3 595.9h.7V571h-.7v24.9Z" class="g2_11"/>
<path fill-rule="evenodd" d="M213.4 597.9h.8V572.1h-.8v25.8Z" class="g2_11"/>
<path fill-rule="evenodd" d="M405.4 571h.8v-.8h-.8v.8Z" class="g2_11"/>
<path fill-rule="evenodd" d="M405.4 571h.8v-.8h-.8v.8Z" class="g2_11"/>
<path fill-rule="evenodd" d="M406.2 571H770.7v-.8H406.2v.8Z" class="g2_11"/>
<path fill-rule="evenodd" d="M770.7 571h.8v-.8h-.8v.8Z" class="g2_11"/>
<path fill-rule="evenodd" d="M770.7 571h.8v-.8h-.8v.8Z" class="g2_11"/>
<path fill-rule="evenodd" d="M405.4 596.6h.8v-.7h-.8v.7Z" class="g2_11"/>
<path fill-rule="evenodd" d="M405.4 596.6h.8v-.7h-.8v.7Z" class="g2_11"/>
<path fill-rule="evenodd" d="M406.2 596.6H770.7v-.7H406.2v.7Z" class="g2_11"/>
<path fill-rule="evenodd" d="M770.7 596.6h.8v-.7h-.8v.7Z" class="g2_11"/>
<path fill-rule="evenodd" d="M770.7 596.6h.8v-.7h-.8v.7Z" class="g2_11"/>
<path fill-rule="evenodd" d="M405.4 595.9h.8V571h-.8v24.9Z" class="g2_11"/>
<path fill-rule="evenodd" d="M770.7 595.9h.8V571h-.8v24.9Z" class="g2_11"/>
<path fill-rule="evenodd" d="M773.5 597.9h.7V572.1h-.7v25.8Z" class="g2_11"/>
<path fill-rule="evenodd" d="M213.4 601h.8v-3.1h-.8V601Z" class="g2_11"/>
<path fill-rule="evenodd" d="M773.5 601h.7v-3.1h-.7V601Z" class="g2_11"/>
<path fill-rule="evenodd" d="M216.2 599.9h.7v-.7h-.7v.7Z" class="g2_11"/>
<path fill-rule="evenodd" d="M216.2 599.9h.7v-.7h-.7v.7Z" class="g2_11"/>
<path fill-rule="evenodd" d="M216.9 599.9H402.3v-.7H216.9v.7Z" class="g2_11"/>
<path fill-rule="evenodd" d="M402.3 599.9h.7v-.7h-.7v.7Z" class="g2_11"/>
<path fill-rule="evenodd" d="M402.3 599.9h.7v-.7h-.7v.7Z" class="g2_11"/>
<path fill-rule="evenodd" d="M216.2 625.6h.7v-.7h-.7v.7Z" class="g2_11"/>
<path fill-rule="evenodd" d="M216.2 625.6h.7v-.7h-.7v.7Z" class="g2_11"/>
<path fill-rule="evenodd" d="M216.9 625.6H402.3v-.7H216.9v.7Z" class="g2_11"/>
<path fill-rule="evenodd" d="M402.3 625.6h.7v-.7h-.7v.7Z" class="g2_11"/>
<path fill-rule="evenodd" d="M402.3 625.6h.7v-.7h-.7v.7Z" class="g2_11"/>
<path fill-rule="evenodd" d="M216.2 624.9h.7v-25h-.7v25Z" class="g2_11"/>
<path fill-rule="evenodd" d="M402.3 624.9h.7v-25h-.7v25Z" class="g2_11"/>
<path fill-rule="evenodd" d="M213.4 626.9h.8V601h-.8v25.9Z" class="g2_11"/>
<path fill-rule="evenodd" d="M405.4 599.9h.8v-.7h-.8v.7Z" class="g2_11"/>
<path fill-rule="evenodd" d="M405.4 599.9h.8v-.7h-.8v.7Z" class="g2_11"/>
<path fill-rule="evenodd" d="M406.2 599.9H770.7v-.7H406.2v.7Z" class="g2_11"/>
<path fill-rule="evenodd" d="M770.7 599.9h.8v-.7h-.8v.7Z" class="g2_11"/>
<path fill-rule="evenodd" d="M770.7 599.9h.8v-.7h-.8v.7Z" class="g2_11"/>
<path fill-rule="evenodd" d="M405.4 625.6h.8v-.7h-.8v.7Z" class="g2_11"/>
<path fill-rule="evenodd" d="M405.4 625.6h.8v-.7h-.8v.7Z" class="g2_11"/>
<path fill-rule="evenodd" d="M406.2 625.6H770.7v-.7H406.2v.7Z" class="g2_11"/>
<path fill-rule="evenodd" d="M770.7 625.6h.8v-.7h-.8v.7Z" class="g2_11"/>
<path fill-rule="evenodd" d="M770.7 625.6h.8v-.7h-.8v.7Z" class="g2_11"/>
<path fill-rule="evenodd" d="M405.4 624.9h.8v-25h-.8v25Z" class="g2_11"/>
<path fill-rule="evenodd" d="M770.7 624.9h.8v-25h-.8v25Z" class="g2_11"/>
<path fill-rule="evenodd" d="M773.5 626.9h.7V601h-.7v25.9Z" class="g2_11"/>
<path fill-rule="evenodd" d="M213.4 630h.8v-3.1h-.8V630Z" class="g2_11"/>
<path fill-rule="evenodd" d="M773.5 630h.7v-3.1h-.7V630Z" class="g2_11"/>
<path fill-rule="evenodd" d="M216.2 628.9h.7v-.7h-.7v.7Z" class="g2_11"/>
<path fill-rule="evenodd" d="M216.2 628.9h.7v-.7h-.7v.7Z" class="g2_11"/>
<path fill-rule="evenodd" d="M216.9 628.9H402.3v-.7H216.9v.7Z" class="g2_11"/>
<path fill-rule="evenodd" d="M402.3 628.9h.7v-.7h-.7v.7Z" class="g2_11"/>
<path fill-rule="evenodd" d="M402.3 628.9h.7v-.7h-.7v.7Z" class="g2_11"/>
<path fill-rule="evenodd" d="M216.2 654.6h.7v-.7h-.7v.7Z" class="g2_11"/>
<path fill-rule="evenodd" d="M216.2 654.6h.7v-.7h-.7v.7Z" class="g2_11"/>
<path fill-rule="evenodd" d="M216.9 654.6H402.3v-.7H216.9v.7Z" class="g2_11"/>
<path fill-rule="evenodd" d="M402.3 654.6h.7v-.7h-.7v.7Z" class="g2_11"/>
<path fill-rule="evenodd" d="M402.3 654.6h.7v-.7h-.7v.7Z" class="g2_11"/>
<path fill-rule="evenodd" d="M216.2 653.9h.7v-25h-.7v25Z" class="g2_11"/>
<path fill-rule="evenodd" d="M402.3 653.9h.7v-25h-.7v25Z" class="g2_11"/>
<path fill-rule="evenodd" d="M213.4 655.9h.8V630h-.8v25.9Z" class="g2_11"/>
<path fill-rule="evenodd" d="M405.4 628.9h.8v-.7h-.8v.7Z" class="g2_11"/>
<path fill-rule="evenodd" d="M405.4 628.9h.8v-.7h-.8v.7Z" class="g2_11"/>
<path fill-rule="evenodd" d="M406.2 628.9H770.7v-.7H406.2v.7Z" class="g2_11"/>
<path fill-rule="evenodd" d="M770.7 628.9h.8v-.7h-.8v.7Z" class="g2_11"/>
<path fill-rule="evenodd" d="M770.7 628.9h.8v-.7h-.8v.7Z" class="g2_11"/>
<path fill-rule="evenodd" d="M405.4 654.6h.8v-.7h-.8v.7Z" class="g2_11"/>
<path fill-rule="evenodd" d="M405.4 654.6h.8v-.7h-.8v.7Z" class="g2_11"/>
<path fill-rule="evenodd" d="M406.2 654.6H770.7v-.7H406.2v.7Z" class="g2_11"/>
<path fill-rule="evenodd" d="M770.7 654.6h.8v-.7h-.8v.7Z" class="g2_11"/>
<path fill-rule="evenodd" d="M770.7 654.6h.8v-.7h-.8v.7Z" class="g2_11"/>
<path fill-rule="evenodd" d="M405.4 653.9h.8v-25h-.8v25Z" class="g2_11"/>
<path fill-rule="evenodd" d="M770.7 653.9h.8v-25h-.8v25Z" class="g2_11"/>
<path fill-rule="evenodd" d="M773.5 655.9h.7V630h-.7v25.9Z" class="g2_11"/>
<path fill-rule="evenodd" d="M213.4 659h.8v-3.1h-.8V659Z" class="g2_11"/>
<path fill-rule="evenodd" d="M773.5 659h.7v-3.1h-.7V659Z" class="g2_11"/>
<path fill-rule="evenodd" d="M216.2 657.9h.7v-.7h-.7v.7Z" class="g2_11"/>
<path fill-rule="evenodd" d="M216.2 657.9h.7v-.7h-.7v.7Z" class="g2_11"/>
<path fill-rule="evenodd" d="M216.9 657.9H402.3v-.7H216.9v.7Z" class="g2_11"/>
<path fill-rule="evenodd" d="M402.3 657.9h.7v-.7h-.7v.7Z" class="g2_11"/>
<path fill-rule="evenodd" d="M402.3 657.9h.7v-.7h-.7v.7Z" class="g2_11"/>
<path fill-rule="evenodd" d="M216.2 683.4h.7v-.7h-.7v.7Z" class="g2_11"/>
<path fill-rule="evenodd" d="M216.2 683.4h.7v-.7h-.7v.7Z" class="g2_11"/>
<path fill-rule="evenodd" d="M216.9 683.4H402.3v-.7H216.9v.7Z" class="g2_11"/>
<path fill-rule="evenodd" d="M402.3 683.4h.7v-.7h-.7v.7Z" class="g2_11"/>
<path fill-rule="evenodd" d="M402.3 683.4h.7v-.7h-.7v.7Z" class="g2_11"/>
<path fill-rule="evenodd" d="M216.2 682.7h.7V657.9h-.7v24.8Z" class="g2_11"/>
<path fill-rule="evenodd" d="M402.3 682.7h.7V657.9h-.7v24.8Z" class="g2_11"/>
<path fill-rule="evenodd" d="M213.4 684.7h.8V659h-.8v25.7Z" class="g2_11"/>
<path fill-rule="evenodd" d="M405.4 657.9h.8v-.7h-.8v.7Z" class="g2_11"/>
<path fill-rule="evenodd" d="M405.4 657.9h.8v-.7h-.8v.7Z" class="g2_11"/>
<path fill-rule="evenodd" d="M406.2 657.9H770.7v-.7H406.2v.7Z" class="g2_11"/>
<path fill-rule="evenodd" d="M770.7 657.9h.8v-.7h-.8v.7Z" class="g2_11"/>
<path fill-rule="evenodd" d="M770.7 657.9h.8v-.7h-.8v.7Z" class="g2_11"/>
<path fill-rule="evenodd" d="M405.4 683.4h.8v-.7h-.8v.7Z" class="g2_11"/>
<path fill-rule="evenodd" d="M405.4 683.4h.8v-.7h-.8v.7Z" class="g2_11"/>
<path fill-rule="evenodd" d="M406.2 683.4H770.7v-.7H406.2v.7Z" class="g2_11"/>
<path fill-rule="evenodd" d="M770.7 683.4h.8v-.7h-.8v.7Z" class="g2_11"/>
<path fill-rule="evenodd" d="M770.7 683.4h.8v-.7h-.8v.7Z" class="g2_11"/>
<path fill-rule="evenodd" d="M405.4 682.7h.8V657.9h-.8v24.8Z" class="g2_11"/>
<path fill-rule="evenodd" d="M770.7 682.7h.8V657.9h-.8v24.8Z" class="g2_11"/>
<path fill-rule="evenodd" d="M773.5 684.7h.7V659h-.7v25.7Z" class="g2_11"/>
<path fill-rule="evenodd" d="M213.4 687.8h.8v-3.1h-.8v3.1Z" class="g2_11"/>
<path fill-rule="evenodd" d="M773.5 687.8h.7v-3.1h-.7v3.1Z" class="g2_11"/>
<path fill-rule="evenodd" d="M216.2 686.7h.7V686h-.7v.7Z" class="g2_11"/>
<path fill-rule="evenodd" d="M216.2 686.7h.7V686h-.7v.7Z" class="g2_11"/>
<path fill-rule="evenodd" d="M216.9 686.7H402.3V686H216.9v.7Z" class="g2_11"/>
<path fill-rule="evenodd" d="M402.3 686.7h.7V686h-.7v.7Z" class="g2_11"/>
<path fill-rule="evenodd" d="M402.3 686.7h.7V686h-.7v.7Z" class="g2_11"/>
<path fill-rule="evenodd" d="M216.2 712.4h.7v-.8h-.7v.8Z" class="g2_11"/>
<path fill-rule="evenodd" d="M216.2 712.4h.7v-.8h-.7v.8Z" class="g2_11"/>
<path fill-rule="evenodd" d="M216.9 712.4H402.3v-.8H216.9v.8Z" class="g2_11"/>
<path fill-rule="evenodd" d="M402.3 712.4h.7v-.8h-.7v.8Z" class="g2_11"/>
<path fill-rule="evenodd" d="M402.3 712.4h.7v-.8h-.7v.8Z" class="g2_11"/>
<path fill-rule="evenodd" d="M216.2 711.6h.7V686.7h-.7v24.9Z" class="g2_11"/>
<path fill-rule="evenodd" d="M402.3 711.6h.7V686.7h-.7v24.9Z" class="g2_11"/>
<path fill-rule="evenodd" d="M213.4 713.6h.8V687.8h-.8v25.8Z" class="g2_11"/>
<path fill-rule="evenodd" d="M405.4 686.7h.8V686h-.8v.7Z" class="g2_11"/>
<path fill-rule="evenodd" d="M405.4 686.7h.8V686h-.8v.7Z" class="g2_11"/>
<path fill-rule="evenodd" d="M406.2 686.7H770.7V686H406.2v.7Z" class="g2_11"/>
<path fill-rule="evenodd" d="M770.7 686.7h.8V686h-.8v.7Z" class="g2_11"/>
<path fill-rule="evenodd" d="M770.7 686.7h.8V686h-.8v.7Z" class="g2_11"/>
<path fill-rule="evenodd" d="M405.4 712.4h.8v-.8h-.8v.8Z" class="g2_11"/>
<path fill-rule="evenodd" d="M405.4 712.4h.8v-.8h-.8v.8Z" class="g2_11"/>
<path fill-rule="evenodd" d="M406.2 712.4H770.7v-.8H406.2v.8Z" class="g2_11"/>
<path fill-rule="evenodd" d="M770.7 712.4h.8v-.8h-.8v.8Z" class="g2_11"/>
<path fill-rule="evenodd" d="M770.7 712.4h.8v-.8h-.8v.8Z" class="g2_11"/>
<path fill-rule="evenodd" d="M405.4 711.6h.8V686.7h-.8v24.9Z" class="g2_11"/>
<path fill-rule="evenodd" d="M770.7 711.6h.8V686.7h-.8v24.9Z" class="g2_11"/>
<path fill-rule="evenodd" d="M773.5 713.6h.7V687.8h-.7v25.8Z" class="g2_11"/>
<path fill-rule="evenodd" d="M213.4 716.8h.8v-3.2h-.8v3.2Z" class="g2_11"/>
<path fill-rule="evenodd" d="M773.5 716.8h.7v-3.2h-.7v3.2Z" class="g2_11"/>
<path fill-rule="evenodd" d="M216.2 715.7h.7v-.8h-.7v.8Z" class="g2_11"/>
<path fill-rule="evenodd" d="M216.2 715.7h.7v-.8h-.7v.8Z" class="g2_11"/>
<path fill-rule="evenodd" d="M216.9 715.7H402.3v-.8H216.9v.8Z" class="g2_11"/>
<path fill-rule="evenodd" d="M402.3 715.7h.7v-.8h-.7v.8Z" class="g2_11"/>
<path fill-rule="evenodd" d="M402.3 715.7h.7v-.8h-.7v.8Z" class="g2_11"/>
<path fill-rule="evenodd" d="M216.2 741.3h.7v-.7h-.7v.7Z" class="g2_11"/>
<path fill-rule="evenodd" d="M216.2 741.3h.7v-.7h-.7v.7Z" class="g2_11"/>
<path fill-rule="evenodd" d="M216.9 741.3H402.3v-.7H216.9v.7Z" class="g2_11"/>
<path fill-rule="evenodd" d="M402.3 741.3h.7v-.7h-.7v.7Z" class="g2_11"/>
<path fill-rule="evenodd" d="M402.3 741.3h.7v-.7h-.7v.7Z" class="g2_11"/>
<path fill-rule="evenodd" d="M216.2 740.6h.7V715.7h-.7v24.9Z" class="g2_11"/>
<path fill-rule="evenodd" d="M402.3 740.6h.7V715.7h-.7v24.9Z" class="g2_11"/>
<path fill-rule="evenodd" d="M213.4 742.6h.8V716.8h-.8v25.8Z" class="g2_11"/>
<path fill-rule="evenodd" d="M405.4 715.7h.8v-.8h-.8v.8Z" class="g2_11"/>
<path fill-rule="evenodd" d="M405.4 715.7h.8v-.8h-.8v.8Z" class="g2_11"/>
<path fill-rule="evenodd" d="M406.2 715.7H770.7v-.8H406.2v.8Z" class="g2_11"/>
<path fill-rule="evenodd" d="M770.7 715.7h.8v-.8h-.8v.8Z" class="g2_11"/>
<path fill-rule="evenodd" d="M770.7 715.7h.8v-.8h-.8v.8Z" class="g2_11"/>
<path fill-rule="evenodd" d="M405.4 741.3h.8v-.7h-.8v.7Z" class="g2_11"/>
<path fill-rule="evenodd" d="M405.4 741.3h.8v-.7h-.8v.7Z" class="g2_11"/>
<path fill-rule="evenodd" d="M406.2 741.3H770.7v-.7H406.2v.7Z" class="g2_11"/>
<path fill-rule="evenodd" d="M770.7 741.3h.8v-.7h-.8v.7Z" class="g2_11"/>
<path fill-rule="evenodd" d="M770.7 741.3h.8v-.7h-.8v.7Z" class="g2_11"/>
<path fill-rule="evenodd" d="M405.4 740.6h.8V715.7h-.8v24.9Z" class="g2_11"/>
<path fill-rule="evenodd" d="M770.7 740.6h.8V715.7h-.8v24.9Z" class="g2_11"/>
<path fill-rule="evenodd" d="M773.5 742.6h.7V716.8h-.7v25.8Z" class="g2_11"/>
<path fill-rule="evenodd" d="M213.4 745.7h.8v-3.1h-.8v3.1Z" class="g2_11"/>
<path fill-rule="evenodd" d="M773.5 745.7h.7v-3.1h-.7v3.1Z" class="g2_11"/>
<path fill-rule="evenodd" d="M216.2 744.6h.7v-.7h-.7v.7Z" class="g2_11"/>
<path fill-rule="evenodd" d="M216.2 744.6h.7v-.7h-.7v.7Z" class="g2_11"/>
<path fill-rule="evenodd" d="M216.9 744.6H402.3v-.7H216.9v.7Z" class="g2_11"/>
<path fill-rule="evenodd" d="M402.3 744.6h.7v-.7h-.7v.7Z" class="g2_11"/>
<path fill-rule="evenodd" d="M402.3 744.6h.7v-.7h-.7v.7Z" class="g2_11"/>
<path fill-rule="evenodd" d="M216.2 770.5h.7v-.8h-.7v.8Z" class="g2_11"/>
<path fill-rule="evenodd" d="M216.2 770.5h.7v-.8h-.7v.8Z" class="g2_11"/>
<path fill-rule="evenodd" d="M216.9 770.5H402.3v-.8H216.9v.8Z" class="g2_11"/>
<path fill-rule="evenodd" d="M402.3 770.5h.7v-.8h-.7v.8Z" class="g2_11"/>
<path fill-rule="evenodd" d="M402.3 770.5h.7v-.8h-.7v.8Z" class="g2_11"/>
<path fill-rule="evenodd" d="M216.2 769.7h.7V744.6h-.7v25.1Z" class="g2_11"/>
<path fill-rule="evenodd" d="M402.3 769.7h.7V744.6h-.7v25.1Z" class="g2_11"/>
<path fill-rule="evenodd" d="M213.4 772.9h.8V745.7h-.8v27.2Z" class="g2_11"/>
<path fill-rule="evenodd" d="M213.4 773.6h.8v-.7h-.8v.7Z" class="g2_11"/>
<path fill-rule="evenodd" d="M213.4 773.6h.8v-.7h-.8v.7Z" class="g2_11"/>
<path fill-rule="evenodd" d="M214.2 773.6H404.3v-.7H214.2v.7Z" class="g2_11"/>
<path fill-rule="evenodd" d="M405.4 744.6h.8v-.7h-.8v.7Z" class="g2_11"/>
<path fill-rule="evenodd" d="M405.4 744.6h.8v-.7h-.8v.7Z" class="g2_11"/>
<path fill-rule="evenodd" d="M406.2 744.6H770.7v-.7H406.2v.7Z" class="g2_11"/>
<path fill-rule="evenodd" d="M770.7 744.6h.8v-.7h-.8v.7Z" class="g2_11"/>
<path fill-rule="evenodd" d="M770.7 744.6h.8v-.7h-.8v.7Z" class="g2_11"/>
<path fill-rule="evenodd" d="M405.4 770.5h.8v-.8h-.8v.8Z" class="g2_11"/>
<path fill-rule="evenodd" d="M405.4 770.5h.8v-.8h-.8v.8Z" class="g2_11"/>
<path fill-rule="evenodd" d="M406.2 770.5H770.7v-.8H406.2v.8Z" class="g2_11"/>
<path fill-rule="evenodd" d="M770.7 770.5h.8v-.8h-.8v.8Z" class="g2_11"/>
<path fill-rule="evenodd" d="M770.7 770.5h.8v-.8h-.8v.8Z" class="g2_11"/>
<path fill-rule="evenodd" d="M405.4 769.7h.8V744.6h-.8v25.1Z" class="g2_11"/>
<path fill-rule="evenodd" d="M770.7 769.7h.8V744.6h-.8v25.1Z" class="g2_11"/>
<path fill-rule="evenodd" d="M404.3 773.6h.8v-.7h-.8v.7Z" class="g2_11"/>
<path fill-rule="evenodd" d="M405.1 773.6H773.5v-.7H405.1v.7Z" class="g2_11"/>
<path fill-rule="evenodd" d="M773.5 772.9h.7V745.7h-.7v27.2Z" class="g2_11"/>
<path fill-rule="evenodd" d="M773.5 773.6h.7v-.7h-.7v.7Z" class="g2_11"/>
<path fill-rule="evenodd" d="M773.5 773.6h.7v-.7h-.7v.7Z" class="g2_11"/>
</svg>