<?xml version="1.0" encoding="UTF-8" standalone="no"?>
<!DOCTYPE svg PUBLIC "-//W3C//DTD SVG 1.1//EN"
"http://www.w3.org/Graphics/SVG/1.1/DTD/svg11.dtd">
<svg viewBox="0 0 909 1286" version="1.1" xmlns="http://www.w3.org/2000/svg" xmlns:xlink="http://www.w3.org/1999/xlink">
<defs>
<clipPath id="c0_13"><path d="M421.5 1210.1v-33.9H475v33.9Z"/></clipPath>
<style type="text/css"><![CDATA[
.g0_13{
fill: #4472C4;
}
.g1_13{
fill: #000;
}
]]></style>
</defs>
<path fill-rule="evenodd" d="M49.7 88.9H836.2v-.7H49.7v.7Z" class="g0_13"/>
<path fill-rule="evenodd" d="M49.7 1161.4H836.2v-1.1H49.7v1.1Z" class="g0_13"/>
<image clip-path="url(#c0_13)" preserveAspectRatio="none" x="422" y="1176" width="53" height="34" xlink:href="img/1.png"/>
<path fill-rule="evenodd" d="M116.6 114.6h.8v-5h-.8v5Z" class="g1_13"/>
<path fill-rule="evenodd" d="M116.6 110.4h.8v-.8h-.8v.8Z" class="g1_13"/>
<path fill-rule="evenodd" d="M117.4 110.4H293v-.8H117.4v.8Z" class="g1_13"/>
<path fill-rule="evenodd" d="M293 110.4h.8v-.8H293v.8Z" class="g1_13"/>
<path fill-rule="evenodd" d="M293.8 110.4H853v-.8H293.8v.8Z" class="g1_13"/>
<path fill-rule="evenodd" d="M853 114.6h.8v-5H853v5Z" class="g1_13"/>
<path fill-rule="evenodd" d="M853 110.4h.8v-.8H853v.8Z" class="g1_13"/>
<path fill-rule="evenodd" d="M119.4 113.5h.7v-.8h-.7v.8Z" class="g1_13"/>
<path fill-rule="evenodd" d="M119.4 113.5h.7v-.8h-.7v.8Z" class="g1_13"/>
<path fill-rule="evenodd" d="M120.1 113.5H291v-.8H120.1v.8Z" class="g1_13"/>
<path fill-rule="evenodd" d="M291 113.5h.8v-.8H291v.8Z" class="g1_13"/>
<path fill-rule="evenodd" d="M291 113.5h.8v-.8H291v.8Z" class="g1_13"/>
<path fill-rule="evenodd" d="M119.4 139.2h.7v-.8h-.7v.8Z" class="g1_13"/>
<path fill-rule="evenodd" d="M119.4 139.2h.7v-.8h-.7v.8Z" class="g1_13"/>
<path fill-rule="evenodd" d="M120.1 139.2H291v-.8H120.1v.8Z" class="g1_13"/>
<path fill-rule="evenodd" d="M291 139.2h.8v-.8H291v.8Z" class="g1_13"/>
<path fill-rule="evenodd" d="M291 139.2h.8v-.8H291v.8Z" class="g1_13"/>
<path fill-rule="evenodd" d="M119.4 138.4h.7V113.5h-.7v24.9Z" class="g1_13"/>
<path fill-rule="evenodd" d="M291 138.4h.8V113.5H291v24.9Z" class="g1_13"/>
<path fill-rule="evenodd" d="M116.6 140.5h.8V114.6h-.8v25.9Z" class="g1_13"/>
<path fill-rule="evenodd" d="M294.1 113.5h.8v-.8h-.8v.8Z" class="g1_13"/>
<path fill-rule="evenodd" d="M294.1 113.5h.8v-.8h-.8v.8Z" class="g1_13"/>
<path fill-rule="evenodd" d="M294.9 113.5H850.3v-.8H294.9v.8Z" class="g1_13"/>
<path fill-rule="evenodd" d="M850.3 113.5h.7v-.8h-.7v.8Z" class="g1_13"/>
<path fill-rule="evenodd" d="M850.3 113.5h.7v-.8h-.7v.8Z" class="g1_13"/>
<path fill-rule="evenodd" d="M294.1 139.2h.8v-.8h-.8v.8Z" class="g1_13"/>
<path fill-rule="evenodd" d="M294.1 139.2h.8v-.8h-.8v.8Z" class="g1_13"/>
<path fill-rule="evenodd" d="M294.9 139.2H850.3v-.8H294.9v.8Z" class="g1_13"/>
<path fill-rule="evenodd" d="M850.3 139.2h.7v-.8h-.7v.8Z" class="g1_13"/>
<path fill-rule="evenodd" d="M850.3 139.2h.7v-.8h-.7v.8Z" class="g1_13"/>
<path fill-rule="evenodd" d="M294.1 138.4h.8V113.5h-.8v24.9Z" class="g1_13"/>
<path fill-rule="evenodd" d="M850.3 138.4h.7V113.5h-.7v24.9Z" class="g1_13"/>
<path fill-rule="evenodd" d="M853 140.5h.8V114.6H853v25.9Z" class="g1_13"/>
<path fill-rule="evenodd" d="M116.6 143.6h.8v-3.1h-.8v3.1Z" class="g1_13"/>
<path fill-rule="evenodd" d="M853 143.6h.8v-3.1H853v3.1Z" class="g1_13"/>
<path fill-rule="evenodd" d="M119.4 142.5h.7v-.8h-.7v.8Z" class="g1_13"/>
<path fill-rule="evenodd" d="M119.4 142.5h.7v-.8h-.7v.8Z" class="g1_13"/>
<path fill-rule="evenodd" d="M120.1 142.5H291v-.8H120.1v.8Z" class="g1_13"/>
<path fill-rule="evenodd" d="M291 142.5h.8v-.8H291v.8Z" class="g1_13"/>
<path fill-rule="evenodd" d="M291 142.5h.8v-.8H291v.8Z" class="g1_13"/>
<path fill-rule="evenodd" d="M119.4 168.3h.7v-.7h-.7v.7Z" class="g1_13"/>
<path fill-rule="evenodd" d="M119.4 168.3h.7v-.7h-.7v.7Z" class="g1_13"/>
<path fill-rule="evenodd" d="M120.1 168.3H291v-.7H120.1v.7Z" class="g1_13"/>
<path fill-rule="evenodd" d="M291 168.3h.8v-.7H291v.7Z" class="g1_13"/>
<path fill-rule="evenodd" d="M291 168.3h.8v-.7H291v.7Z" class="g1_13"/>
<path fill-rule="evenodd" d="M119.4 167.6h.7V142.5h-.7v25.1Z" class="g1_13"/>
<path fill-rule="evenodd" d="M291 167.6h.8V142.5H291v25.1Z" class="g1_13"/>
<path fill-rule="evenodd" d="M116.6 169.6h.8v-26h-.8v26Z" class="g1_13"/>
<path fill-rule="evenodd" d="M294.1 142.5h.8v-.8h-.8v.8Z" class="g1_13"/>
<path fill-rule="evenodd" d="M294.1 142.5h.8v-.8h-.8v.8Z" class="g1_13"/>
<path fill-rule="evenodd" d="M294.9 142.5H850.3v-.8H294.9v.8Z" class="g1_13"/>
<path fill-rule="evenodd" d="M850.3 142.5h.7v-.8h-.7v.8Z" class="g1_13"/>
<path fill-rule="evenodd" d="M850.3 142.5h.7v-.8h-.7v.8Z" class="g1_13"/>
<path fill-rule="evenodd" d="M294.1 168.3h.8v-.7h-.8v.7Z" class="g1_13"/>
<path fill-rule="evenodd" d="M294.1 168.3h.8v-.7h-.8v.7Z" class="g1_13"/>
<path fill-rule="evenodd" d="M294.9 168.3H850.3v-.7H294.9v.7Z" class="g1_13"/>
<path fill-rule="evenodd" d="M850.3 168.3h.7v-.7h-.7v.7Z" class="g1_13"/>
<path fill-rule="evenodd" d="M850.3 168.3h.7v-.7h-.7v.7Z" class="g1_13"/>
<path fill-rule="evenodd" d="M294.1 167.6h.8V142.5h-.8v25.1Z" class="g1_13"/>
<path fill-rule="evenodd" d="M850.3 167.6h.7V142.5h-.7v25.1Z" class="g1_13"/>
<path fill-rule="evenodd" d="M853 169.6h.8v-26H853v26Z" class="g1_13"/>
<path fill-rule="evenodd" d="M116.6 172.7h.8v-3.1h-.8v3.1Z" class="g1_13"/>
<path fill-rule="evenodd" d="M853 172.7h.8v-3.1H853v3.1Z" class="g1_13"/>
<path fill-rule="evenodd" d="M119.4 171.6h.7v-.7h-.7v.7Z" class="g1_13"/>
<path fill-rule="evenodd" d="M119.4 171.6h.7v-.7h-.7v.7Z" class="g1_13"/>
<path fill-rule="evenodd" d="M120.1 171.6H291v-.7H120.1v.7Z" class="g1_13"/>
<path fill-rule="evenodd" d="M291 171.6h.8v-.7H291v.7Z" class="g1_13"/>
<path fill-rule="evenodd" d="M291 171.6h.8v-.7H291v.7Z" class="g1_13"/>
<path fill-rule="evenodd" d="M119.4 197.3h.7v-.7h-.7v.7Z" class="g1_13"/>
<path fill-rule="evenodd" d="M119.4 197.3h.7v-.7h-.7v.7Z" class="g1_13"/>
<path fill-rule="evenodd" d="M120.1 197.3H291v-.7H120.1v.7Z" class="g1_13"/>
<path fill-rule="evenodd" d="M291 197.3h.8v-.7H291v.7Z" class="g1_13"/>
<path fill-rule="evenodd" d="M291 197.3h.8v-.7H291v.7Z" class="g1_13"/>
<path fill-rule="evenodd" d="M119.4 196.6h.7v-25h-.7v25Z" class="g1_13"/>
<path fill-rule="evenodd" d="M291 196.6h.8v-25H291v25Z" class="g1_13"/>
<path fill-rule="evenodd" d="M116.6 198.6h.8V172.7h-.8v25.9Z" class="g1_13"/>
<path fill-rule="evenodd" d="M294.1 171.6h.8v-.7h-.8v.7Z" class="g1_13"/>
<path fill-rule="evenodd" d="M294.1 171.6h.8v-.7h-.8v.7Z" class="g1_13"/>
<path fill-rule="evenodd" d="M294.9 171.6H850.3v-.7H294.9v.7Z" class="g1_13"/>
<path fill-rule="evenodd" d="M850.3 171.6h.7v-.7h-.7v.7Z" class="g1_13"/>
<path fill-rule="evenodd" d="M850.3 171.6h.7v-.7h-.7v.7Z" class="g1_13"/>
<path fill-rule="evenodd" d="M294.1 197.3h.8v-.7h-.8v.7Z" class="g1_13"/>
<path fill-rule="evenodd" d="M294.1 197.3h.8v-.7h-.8v.7Z" class="g1_13"/>
<path fill-rule="evenodd" d="M294.9 197.3H850.3v-.7H294.9v.7Z" class="g1_13"/>
<path fill-rule="evenodd" d="M850.3 197.3h.7v-.7h-.7v.7Z" class="g1_13"/>
<path fill-rule="evenodd" d="M850.3 197.3h.7v-.7h-.7v.7Z" class="g1_13"/>
<path fill-rule="evenodd" d="M294.1 196.6h.8v-25h-.8v25Z" class="g1_13"/>
<path fill-rule="evenodd" d="M850.3 196.6h.7v-25h-.7v25Z" class="g1_13"/>
<path fill-rule="evenodd" d="M853 198.6h.8V172.7H853v25.9Z" class="g1_13"/>
<path fill-rule="evenodd" d="M116.6 201.7h.8v-3.1h-.8v3.1Z" class="g1_13"/>
<path fill-rule="evenodd" d="M853 201.7h.8v-3.1H853v3.1Z" class="g1_13"/>
<path fill-rule="evenodd" d="M119.4 200.6h.7v-.7h-.7v.7Z" class="g1_13"/>
<path fill-rule="evenodd" d="M119.4 200.6h.7v-.7h-.7v.7Z" class="g1_13"/>
<path fill-rule="evenodd" d="M120.1 200.6H291v-.7H120.1v.7Z" class="g1_13"/>
<path fill-rule="evenodd" d="M291 200.6h.8v-.7H291v.7Z" class="g1_13"/>
<path fill-rule="evenodd" d="M291 200.6h.8v-.7H291v.7Z" class="g1_13"/>
<path fill-rule="evenodd" d="M119.4 226.3h.7v-.8h-.7v.8Z" class="g1_13"/>
<path fill-rule="evenodd" d="M119.4 226.3h.7v-.8h-.7v.8Z" class="g1_13"/>
<path fill-rule="evenodd" d="M120.1 226.3H291v-.8H120.1v.8Z" class="g1_13"/>
<path fill-rule="evenodd" d="M291 226.3h.8v-.8H291v.8Z" class="g1_13"/>
<path fill-rule="evenodd" d="M291 226.3h.8v-.8H291v.8Z" class="g1_13"/>
<path fill-rule="evenodd" d="M119.4 225.5h.7V200.6h-.7v24.9Z" class="g1_13"/>
<path fill-rule="evenodd" d="M291 225.5h.8V200.6H291v24.9Z" class="g1_13"/>
<path fill-rule="evenodd" d="M116.6 227.5h.8V201.7h-.8v25.8Z" class="g1_13"/>
<path fill-rule="evenodd" d="M294.1 200.6h.8v-.7h-.8v.7Z" class="g1_13"/>
<path fill-rule="evenodd" d="M294.1 200.6h.8v-.7h-.8v.7Z" class="g1_13"/>
<path fill-rule="evenodd" d="M294.9 200.6H850.3v-.7H294.9v.7Z" class="g1_13"/>
<path fill-rule="evenodd" d="M850.3 200.6h.7v-.7h-.7v.7Z" class="g1_13"/>
<path fill-rule="evenodd" d="M850.3 200.6h.7v-.7h-.7v.7Z" class="g1_13"/>
<path fill-rule="evenodd" d="M294.1 226.3h.8v-.8h-.8v.8Z" class="g1_13"/>
<path fill-rule="evenodd" d="M294.1 226.3h.8v-.8h-.8v.8Z" class="g1_13"/>
<path fill-rule="evenodd" d="M294.9 226.3H850.3v-.8H294.9v.8Z" class="g1_13"/>
<path fill-rule="evenodd" d="M850.3 226.3h.7v-.8h-.7v.8Z" class="g1_13"/>
<path fill-rule="evenodd" d="M850.3 226.3h.7v-.8h-.7v.8Z" class="g1_13"/>
<path fill-rule="evenodd" d="M294.1 225.5h.8V200.6h-.8v24.9Z" class="g1_13"/>
<path fill-rule="evenodd" d="M850.3 225.5h.7V200.6h-.7v24.9Z" class="g1_13"/>
<path fill-rule="evenodd" d="M853 227.5h.8V201.7H853v25.8Z" class="g1_13"/>
<path fill-rule="evenodd" d="M116.6 230.7h.8v-3.2h-.8v3.2Z" class="g1_13"/>
<path fill-rule="evenodd" d="M853 230.7h.8v-3.2H853v3.2Z" class="g1_13"/>
<path fill-rule="evenodd" d="M119.4 229.6h.7v-.8h-.7v.8Z" class="g1_13"/>
<path fill-rule="evenodd" d="M119.4 229.6h.7v-.8h-.7v.8Z" class="g1_13"/>
<path fill-rule="evenodd" d="M120.1 229.6H291v-.8H120.1v.8Z" class="g1_13"/>
<path fill-rule="evenodd" d="M291 229.6h.8v-.8H291v.8Z" class="g1_13"/>
<path fill-rule="evenodd" d="M291 229.6h.8v-.8H291v.8Z" class="g1_13"/>
<path fill-rule="evenodd" d="M119.4 278.1h.7v-.7h-.7v.7Z" class="g1_13"/>
<path fill-rule="evenodd" d="M119.4 278.1h.7v-.7h-.7v.7Z" class="g1_13"/>
<path fill-rule="evenodd" d="M120.1 278.1H291v-.7H120.1v.7Z" class="g1_13"/>
<path fill-rule="evenodd" d="M291 278.1h.8v-.7H291v.7Z" class="g1_13"/>
<path fill-rule="evenodd" d="M291 278.1h.8v-.7H291v.7Z" class="g1_13"/>
<path fill-rule="evenodd" d="M119.4 277.4h.7V229.6h-.7v47.8Z" class="g1_13"/>
<path fill-rule="evenodd" d="M291 277.4h.8V229.6H291v47.8Z" class="g1_13"/>
<path fill-rule="evenodd" d="M116.6 279.4h.8V230.7h-.8v48.7Z" class="g1_13"/>
<path fill-rule="evenodd" d="M294.1 229.6h.8v-.8h-.8v.8Z" class="g1_13"/>
<path fill-rule="evenodd" d="M294.1 229.6h.8v-.8h-.8v.8Z" class="g1_13"/>
<path fill-rule="evenodd" d="M294.9 229.6H850.3v-.8H294.9v.8Z" class="g1_13"/>
<path fill-rule="evenodd" d="M850.3 229.6h.7v-.8h-.7v.8Z" class="g1_13"/>
<path fill-rule="evenodd" d="M850.3 229.6h.7v-.8h-.7v.8Z" class="g1_13"/>
<path fill-rule="evenodd" d="M294.1 278.1h.8v-.7h-.8v.7Z" class="g1_13"/>
<path fill-rule="evenodd" d="M294.1 278.1h.8v-.7h-.8v.7Z" class="g1_13"/>
<path fill-rule="evenodd" d="M294.9 278.1H850.3v-.7H294.9v.7Z" class="g1_13"/>
<path fill-rule="evenodd" d="M850.3 278.1h.7v-.7h-.7v.7Z" class="g1_13"/>
<path fill-rule="evenodd" d="M850.3 278.1h.7v-.7h-.7v.7Z" class="g1_13"/>
<path fill-rule="evenodd" d="M294.1 277.4h.8V229.6h-.8v47.8Z" class="g1_13"/>
<path fill-rule="evenodd" d="M850.3 277.4h.7V229.6h-.7v47.8Z" class="g1_13"/>
<path fill-rule="evenodd" d="M853 279.4h.8V230.7H853v48.7Z" class="g1_13"/>
<path fill-rule="evenodd" d="M116.6 282.5h.8v-3.1h-.8v3.1Z" class="g1_13"/>
<path fill-rule="evenodd" d="M853 282.5h.8v-3.1H853v3.1Z" class="g1_13"/>
<path fill-rule="evenodd" d="M119.4 281.4h.7v-.7h-.7v.7Z" class="g1_13"/>
<path fill-rule="evenodd" d="M119.4 281.4h.7v-.7h-.7v.7Z" class="g1_13"/>
<path fill-rule="evenodd" d="M120.1 281.4H291v-.7H120.1v.7Z" class="g1_13"/>
<path fill-rule="evenodd" d="M291 281.4h.8v-.7H291v.7Z" class="g1_13"/>
<path fill-rule="evenodd" d="M291 281.4h.8v-.7H291v.7Z" class="g1_13"/>
<path fill-rule="evenodd" d="M119.4 329.8h.7v-.7h-.7v.7Z" class="g1_13"/>
<path fill-rule="evenodd" d="M119.4 329.8h.7v-.7h-.7v.7Z" class="g1_13"/>
<path fill-rule="evenodd" d="M120.1 329.8H291v-.7H120.1v.7Z" class="g1_13"/>
<path fill-rule="evenodd" d="M291 329.8h.8v-.7H291v.7Z" class="g1_13"/>
<path fill-rule="evenodd" d="M291 329.8h.8v-.7H291v.7Z" class="g1_13"/>
<path fill-rule="evenodd" d="M119.4 329.1h.7V281.4h-.7v47.7Z" class="g1_13"/>
<path fill-rule="evenodd" d="M291 329.1h.8V281.4H291v47.7Z" class="g1_13"/>
<path fill-rule="evenodd" d="M116.6 331.1h.8V282.5h-.8v48.6Z" class="g1_13"/>
<path fill-rule="evenodd" d="M294.1 281.4h.8v-.7h-.8v.7Z" class="g1_13"/>
<path fill-rule="evenodd" d="M294.1 281.4h.8v-.7h-.8v.7Z" class="g1_13"/>
<path fill-rule="evenodd" d="M294.9 281.4H850.3v-.7H294.9v.7Z" class="g1_13"/>
<path fill-rule="evenodd" d="M850.3 281.4h.7v-.7h-.7v.7Z" class="g1_13"/>
<path fill-rule="evenodd" d="M850.3 281.4h.7v-.7h-.7v.7Z" class="g1_13"/>
<path fill-rule="evenodd" d="M294.1 329.8h.8v-.7h-.8v.7Z" class="g1_13"/>
<path fill-rule="evenodd" d="M294.1 329.8h.8v-.7h-.8v.7Z" class="g1_13"/>
<path fill-rule="evenodd" d="M294.9 329.8H850.3v-.7H294.9v.7Z" class="g1_13"/>
<path fill-rule="evenodd" d="M850.3 329.8h.7v-.7h-.7v.7Z" class="g1_13"/>
<path fill-rule="evenodd" d="M850.3 329.8h.7v-.7h-.7v.7Z" class="g1_13"/>
<path fill-rule="evenodd" d="M294.1 329.1h.8V281.4h-.8v47.7Z" class="g1_13"/>
<path fill-rule="evenodd" d="M850.3 329.1h.7V281.4h-.7v47.7Z" class="g1_13"/>
<path fill-rule="evenodd" d="M853 331.1h.8V282.5H853v48.6Z" class="g1_13"/>
<path fill-rule="evenodd" d="M116.6 334.2h.8v-3.1h-.8v3.1Z" class="g1_13"/>
<path fill-rule="evenodd" d="M853 334.2h.8v-3.1H853v3.1Z" class="g1_13"/>
<path fill-rule="evenodd" d="M119.4 333.1h.7v-.7h-.7v.7Z" class="g1_13"/>
<path fill-rule="evenodd" d="M119.4 333.1h.7v-.7h-.7v.7Z" class="g1_13"/>
<path fill-rule="evenodd" d="M120.1 333.1H291v-.7H120.1v.7Z" class="g1_13"/>
<path fill-rule="evenodd" d="M291 333.1h.8v-.7H291v.7Z" class="g1_13"/>
<path fill-rule="evenodd" d="M291 333.1h.8v-.7H291v.7Z" class="g1_13"/>
<path fill-rule="evenodd" d="M119.4 427.4h.7v-.7h-.7v.7Z" class="g1_13"/>
<path fill-rule="evenodd" d="M119.4 427.4h.7v-.7h-.7v.7Z" class="g1_13"/>
<path fill-rule="evenodd" d="M120.1 427.4H291v-.7H120.1v.7Z" class="g1_13"/>
<path fill-rule="evenodd" d="M291 427.4h.8v-.7H291v.7Z" class="g1_13"/>
<path fill-rule="evenodd" d="M291 427.4h.8v-.7H291v.7Z" class="g1_13"/>
<path fill-rule="evenodd" d="M119.4 426.7h.7V333.2h-.7v93.5Z" class="g1_13"/>
<path fill-rule="evenodd" d="M291 426.7h.8V333.2H291v93.5Z" class="g1_13"/>
<path fill-rule="evenodd" d="M116.6 429.8h.8V334.3h-.8v95.5Z" class="g1_13"/>
<path fill-rule="evenodd" d="M116.6 430.5h.8v-.7h-.8v.7Z" class="g1_13"/>
<path fill-rule="evenodd" d="M116.6 430.5h.8v-.7h-.8v.7Z" class="g1_13"/>
<path fill-rule="evenodd" d="M117.4 430.5H293v-.7H117.4v.7Z" class="g1_13"/>
<path fill-rule="evenodd" d="M294.1 333.1h.8v-.7h-.8v.7Z" class="g1_13"/>
<path fill-rule="evenodd" d="M294.1 333.1h.8v-.7h-.8v.7Z" class="g1_13"/>
<path fill-rule="evenodd" d="M294.9 333.1H850.3v-.7H294.9v.7Z" class="g1_13"/>
<path fill-rule="evenodd" d="M850.3 333.1h.7v-.7h-.7v.7Z" class="g1_13"/>
<path fill-rule="evenodd" d="M850.3 333.1h.7v-.7h-.7v.7Z" class="g1_13"/>
<path fill-rule="evenodd" d="M294.1 427.4h.8v-.7h-.8v.7Z" class="g1_13"/>
<path fill-rule="evenodd" d="M294.1 427.4h.8v-.7h-.8v.7Z" class="g1_13"/>
<path fill-rule="evenodd" d="M294.9 427.4H850.3v-.7H294.9v.7Z" class="g1_13"/>
<path fill-rule="evenodd" d="M850.3 427.4h.7v-.7h-.7v.7Z" class="g1_13"/>
<path fill-rule="evenodd" d="M850.3 427.4h.7v-.7h-.7v.7Z" class="g1_13"/>
<path fill-rule="evenodd" d="M294.1 426.7h.8V333.2h-.8v93.5Z" class="g1_13"/>
<path fill-rule="evenodd" d="M850.3 426.7h.7V333.2h-.7v93.5Z" class="g1_13"/>
<path fill-rule="evenodd" d="M293 430.5h.8v-.7H293v.7Z" class="g1_13"/>
<path fill-rule="evenodd" d="M293.8 430.5H853v-.7H293.8v.7Z" class="g1_13"/>
<path fill-rule="evenodd" d="M853 429.8h.8V334.3H853v95.5Z" class="g1_13"/>
<path fill-rule="evenodd" d="M853 430.5h.8v-.7H853v.7Z" class="g1_13"/>
<path fill-rule="evenodd" d="M853 430.5h.8v-.7H853v.7Z" class="g1_13"/>
</svg>